<?xml version="1.0" standalone="no"?>
<!DOCTYPE svg PUBLIC "-//W3C//DTD SVG 1.1//EN" "http://www.w3.org/Graphics/SVG/1.1/DTD/svg11.dtd" >
<svg>
<metadata>
Created by FontForge 20090914 at Sat Feb  4 18:46:29 2017
 By www-data
Copyright (c) 2012, LatinoType (www.latinotype.com), with Reserved Font Name 'Julius'
</metadata>
<defs>
<font id="JuliusSansOne-Regular" horiz-adv-x="883" >
  <font-face 
    font-family="Julius Sans One"
    font-weight="400"
    font-stretch="normal"
    units-per-em="1000"
    panose-1="2 0 0 0 0 0 0 0 0 0"
    ascent="800"
    descent="-200"
    x-height="649"
    cap-height="715"
    bbox="-43.998 -228 1469 863"
    underline-thickness="50"
    underline-position="-50"
    unicode-range="U+0020-U+FB02"
  />
<missing-glyph horiz-adv-x="260" 
 />
    <glyph glyph-name=".notdef" horiz-adv-x="260" 
 />
    <glyph glyph-name="space" unicode=" " horiz-adv-x="360" 
 />
    <glyph glyph-name="exclam" unicode="!" horiz-adv-x="284" 
d="M110 20c0 9.33301 3 17 9 23s13.667 9 23 9s17 -3 23 -9s9 -13.667 9 -23s-3 -17 -9 -23s-13.667 -9 -23 -9s-17 3 -23 9s-9 13.667 -9 23zM124 150l-5 500h46l-5 -500h-36z" />
    <glyph glyph-name="quotedbl" unicode="&#x22;" horiz-adv-x="227" 
d="M44 567l-8 148h45l-8 -148h-29zM154 567l-8 148h45l-8 -148h-29z" />
    <glyph glyph-name="numbersign" unicode="#" horiz-adv-x="646" 
d="M34 218v37h117l39 222h-110v37h116l37 207l43 -6l-36 -201h218l37 207l43 -6l-36 -201h110v-37h-116l-39 -222h110v-37h-117l-40 -229l-43 5l39 224h-218l-40 -229l-43 5l39 224h-110zM234 477l-39 -222h218l39 222h-218z" />
    <glyph glyph-name="dollar" unicode="$" horiz-adv-x="547" 
d="M136.5 462c-26.333 31.333 -39.5 69.4971 -39.5 114.497s17.5 81.333 52.5 109s79.167 41.5 132.5 41.5h2l11 107h40l-11 -109c50.667 -5.33301 95.334 -16.666 134.001 -33.999l-17 -39c-34.667 14.667 -75 24.334 -121 29.001l-28 -285c60.667 -42 101 -73.333 121 -94
c38 -40 57 -83.333 57 -130c0 -60.667 -20.333 -106.5 -61 -137.5s-93.334 -46.5 -158.001 -46.5l-9 -97h-40l10 99c-64 6.66699 -115.667 24.334 -155 53.001l24 36c37.333 -24.667 82.333 -40 135 -46l33 330c-48.667 34.667 -86.167 67.667 -112.5 99zM372.5 67.4971
c29.667 23 44.5 53.333 44.5 91s-11.167 69 -33.5 94s-54.833 52.833 -97.5 83.5l-30 -304c48 0.666992 86.833 12.5 116.5 35.5zM185 654.497c-23.333 -18.333 -34.999 -43.667 -34.999 -76s9.16699 -60.5 27.5 -84.5s44.166 -48 77.499 -72l25 261
c-40 -0.666992 -71.667 -10.167 -95 -28.5z" />
    <glyph glyph-name="percent" unicode="%" horiz-adv-x="750" 
d="M130 -1l457 733l35 -21l-456 -732zM70 551c0 54.667 12.832 97.667 38.499 129s58.834 47 99.501 47s73.667 -15.667 99 -47s38 -74.333 38 -129s-13.333 -98.5 -40 -131.5s-59.167 -49.5 -97.5 -49.5s-70.833 16.5 -97.5 49.5s-40 76.833 -40 131.5zM110.999 551
c0 -44.667 9.33301 -79.667 28 -105s41.834 -38 69.501 -38s50.5 12.667 68.5 38s27 60.333 27 105s-9 79.5 -27 104.5s-40.833 37.5 -68.5 37.5s-50.834 -12.5 -69.501 -37.5s-28 -59.833 -28 -104.5zM404.999 169c0 54.667 12.832 97.667 38.499 129s58.834 47 99.501 47
s73.667 -15.667 99 -47s38 -74.333 38 -129s-13.333 -98.5 -40 -131.5s-59.167 -49.5 -97.5 -49.5s-70.833 16.5 -97.5 49.5s-40 76.833 -40 131.5zM445.998 169c0 -44.667 9.33301 -79.667 28 -105s41.834 -38 69.501 -38s50.5 12.667 68.5 38s27 60.333 27 105
s-9 79.5 -27 104.5s-40.833 37.5 -68.5 37.5s-50.834 -12.5 -69.501 -37.5s-28 -59.833 -28 -104.5z" />
    <glyph glyph-name="ampersand" unicode="&#x26;" horiz-adv-x="659" 
d="M559 275h39.001c-1.33301 -62 -19 -116.333 -53 -163l104 -112h-60l-73 79c-32 -28 -68.667 -50 -110 -66s-81.333 -24 -120 -24c-64.667 0 -115.167 13.5 -151.5 40.5s-54.5 64.833 -54.5 113.5s14.333 89.834 43 123.501s69 68.167 121 103.5
c-79.333 85.333 -119 151 -119 197s15 82.167 45 108.5s73.667 39.5 131 39.5s100.333 -13.5 129 -40.5s43 -59.333 43 -97s-14.333 -73.167 -43 -106.5s-68.334 -69.666 -119.001 -108.999l207 -221c11.333 13.333 21 33.666 29 60.999s12 51.666 12 72.999zM292.001 28
c67.333 0 132.333 27.001 195 81.001l-213 228c-98.667 -60 -148 -120 -148 -180c0 -40.667 14.333 -72.334 43 -95.001s69.667 -34 123 -34zM428.001 569.001c0 33.333 -10.833 59.334 -32.5 78.001s-52.167 28 -91.5 28c-89.333 0 -134 -35.333 -134 -106
c0 -18.667 5.83301 -38.834 17.5 -60.501s24.167 -40 37.5 -55s32 -34.5 56 -58.5c98 64.667 147 122.667 147 174z" />
    <glyph glyph-name="quotesingle" unicode="'" horiz-adv-x="117" 
d="M44 567l-8 148h45l-8 -148h-29z" />
    <glyph glyph-name="parenleft" unicode="(" horiz-adv-x="321" 
d="M90 267c0 98.667 17.333 186.667 52 264s79 138 133 182l26 -28c-45.333 -42.667 -83.166 -101.5 -113.499 -176.5s-45.5 -155.5 -45.5 -241.5s15.167 -166.5 45.5 -241.5s68.166 -133.833 113.499 -176.5l-26 -28c-54 44 -98.333 104.667 -133 182s-52 165.333 -52 264z
" />
    <glyph glyph-name="parenright" unicode=")" horiz-adv-x="321" 
d="M231 267c0 -98.667 -17.333 -186.667 -52 -264s-79 -138 -133 -182l-26 28c45.333 42.667 83.166 101.5 113.499 176.5s45.5 155.5 45.5 241.5s-15.167 166.5 -45.5 241.5s-68.166 133.833 -113.499 176.5l26 28c54 -44 98.333 -104.667 133 -182s52 -165.333 52 -264z
" />
    <glyph glyph-name="asterisk" unicode="*" horiz-adv-x="432" 
d="M238 404h-44v117l-101 -59l-22 38l102 59l-103 60l22 38l102 -60v118h44v-119l102 60l22 -37l-103 -60l102 -59l-22 -38l-101 59v-117z" />
    <glyph glyph-name="plus" unicode="+" horiz-adv-x="494" 
d="M227 167v157h-157v40h157v157h40v-157h157v-40h-157v-157h-40z" />
    <glyph glyph-name="comma" unicode="," horiz-adv-x="113" 
d="M30 53h53v-49l-42 -77h-23l12 61v65z" />
    <glyph glyph-name="hyphen" unicode="-" horiz-adv-x="494" 
d="M70 364h354v-40h-354v40z" />
    <glyph glyph-name="period" unicode="." horiz-adv-x="113" 
d="M30 0v53h53v-53h-53z" />
    <glyph glyph-name="slash" unicode="/" horiz-adv-x="370" 
d="M10 2l311 722l39 -15l-311 -722z" />
    <glyph glyph-name="zero" unicode="0" horiz-adv-x="655" 
d="M148.5 87.5c-45.667 66.333 -68.5 157 -68.5 272s21.833 205 65.5 270s104.5 97.5 182.5 97.5s138.667 -32.5 182 -97.5s65 -155 65 -270s-22.667 -205.667 -68 -272s-105 -99.5 -179 -99.5s-133.833 33.167 -179.5 99.5zM132 358c0 -103.333 17.333 -183.5 52 -240.5
s82.834 -85.5 144.501 -85.5s109.5 28.5 143.5 85.5s51 137.167 51 240.5s-17 183.333 -51 240s-81.833 85 -143.5 85s-109.834 -28.333 -144.501 -85s-52 -136.667 -52 -240z" />
    <glyph glyph-name="one" unicode="1" horiz-adv-x="318" 
d="M186 715v-715h-48v654l-113 -60l-17 31l148 90h30z" />
    <glyph glyph-name="two" unicode="2" horiz-adv-x="620" 
d="M70 0l0.00292969 38.999c117.333 98 210.666 190 279.999 276s104 158 104 216s-13.833 97.833 -41.5 119.5s-69.5 32.5 -125.5 32.5s-113.333 -10.333 -172 -31l-12 40c65.333 23.333 129.166 35 191.499 35s113.166 -15 152.499 -45s59 -78.167 59 -144.5
s-32.667 -142.166 -98 -227.499s-153 -175 -263 -269h399v-41h-474z" />
    <glyph glyph-name="three" unicode="3" horiz-adv-x="586" 
d="M88 691c65.333 24.667 125.832 36.999 181.499 36.999s100.834 -13.167 135.501 -39.5s52 -59.166 52 -98.499s-12.833 -75 -38.5 -107s-56.5 -57.667 -92.5 -77c49.333 -13.333 90 -35.833 122 -67.5s48 -72.5 48 -122.5c0 -66 -24.667 -121 -74 -165s-109 -66 -179 -66
s-133 14 -189 42l16 37c45.333 -23.333 100 -35 164 -35s115 17.5 153 52.5s57 79.833 57 134.5c0 35.333 -13 66 -39 92s-56 44.667 -90 56s-67.333 17 -100 17h-6v34c48.667 2.66699 93.667 21.834 135 57.501s62 73.167 62 112.5c0 29.333 -12.5 53.166 -37.5 71.499
s-61.833 27.5 -110.5 27.5s-101.667 -10 -159 -30z" />
    <glyph glyph-name="four" unicode="4" horiz-adv-x="548" 
d="M368 0v230h-334v37l348 454h34v-447h114v-44h-114v-230h-48zM368 274v363l-280 -363h280z" />
    <glyph glyph-name="five" unicode="5" horiz-adv-x="561" 
d="M456 715l-0.000976562 -39.999h-277l-12 -160c201.333 -42.667 302 -139.334 302 -290.001c0 -62 -21.167 -117 -63.5 -165s-103.166 -72 -182.499 -72c-62 0 -115 11 -159 33l16 39c46.667 -18.667 91 -28 133 -28s76.167 6 102.5 18s46.5 28 60.5 48
c27.333 38 41 80.333 41 127c0 136.667 -100.333 220.667 -301 252l20 238h320z" />
    <glyph glyph-name="six" unicode="6" horiz-adv-x="604" 
d="M132 266c0 -82 16.6699 -141.498 50.0029 -178.498s75.5 -55.5 126.5 -55.5s92.833 18 125.5 54s49 79 49 129s-13.667 90.833 -41 122.5s-63.833 47.5 -109.5 47.5s-93.167 -12 -142.5 -36l-13 31c57.333 30 114.833 45 172.5 45s102.834 -19.5 135.501 -58.5
s49 -89 49 -150s-21.667 -114.333 -65 -160s-96 -68.5 -158 -68.5c-62.667 0 -115.334 19.333 -158.001 58c-48.667 43.333 -73 116.666 -73 219.999c0 49.333 7 96.5 21 141.5s30.667 83 50 114s44.166 61.667 74.499 92s56.666 54 78.999 71s48.5 35.5 78.5 55.5l21 -32
c-34.667 -22.667 -65.334 -45.5 -92.001 -68.5s-55 -52.833 -85 -89.5c-63.333 -76.667 -95 -171.334 -95 -284.001z" />
    <glyph glyph-name="seven" unicode="7" horiz-adv-x="509" 
d="M70 671v44h406v-34l-287 -681h-53l284 671h-350z" />
    <glyph glyph-name="eight" unicode="8" horiz-adv-x="580" 
d="M168.5 680.5c34.333 31 79.168 46.5029 134.501 46.5029s97.833 -15.167 127.5 -45.5s44.5 -65.833 44.5 -106.5s-12 -74.334 -36 -101.001s-58.667 -53.334 -104 -80.001c53.333 -31.333 95.166 -63 125.499 -95s45.5 -69.667 45.5 -113c0 -56 -19.833 -103 -59.5 -141
s-90.667 -57 -153 -57s-114.5 15.833 -156.5 47.5s-63 74.667 -63 129s14.833 97.833 44.5 130.5s71.167 64.667 124.5 96c-40 24.667 -71 50.167 -93 76.5s-33 57.166 -33 92.499c0 49.333 17.167 89.5 51.5 120.5zM454.002 186.003c0 36.667 -19.334 71 -58.001 103
c-33.333 28 -70.333 53.667 -111 77c-79.333 -45.333 -128.333 -89 -147 -131c-8 -19.333 -12 -40.333 -12 -63c0 -46.667 15.5 -81.667 46.5 -105s71.333 -35 121 -35s88.834 14.333 117.501 43s43 65.667 43 111zM395.501 651.003c-21 21.333 -52.333 32.001 -94 32.001
s-74.834 -11 -99.501 -33s-37 -49.667 -37 -83s10.667 -60.333 32 -81s53 -43 95 -67c44.667 25.333 78.334 49.166 101.001 71.499s34 49.333 34 81s-10.5 58.167 -31.5 79.5z" />
    <glyph glyph-name="nine" unicode="9" horiz-adv-x="604" 
d="M472 449c0 82 -16.6699 141.5 -50.0029 178.5s-75.5 55.5 -126.5 55.5s-92.833 -18 -125.5 -54s-49 -79 -49 -129s13.667 -91.5 41 -124.5s63.833 -49.5 109.5 -49.5s93.167 12 142.5 36l13 -31c-57.333 -30 -114.833 -45 -172.5 -45s-102.834 20 -135.501 60
s-49 90.667 -49 152s21.667 114.833 65 160.5s96 68.5 158 68.5c62.667 0 115.334 -19 158.001 -57c48.667 -44 73 -117.667 73 -221c0 -49.333 -7 -96.5 -21 -141.5s-30.667 -83 -50 -114s-44.166 -61.667 -74.499 -92s-56.666 -54 -78.999 -71s-48.5 -35.5 -78.5 -55.5
l-21 32c34.667 22.667 65.334 45.5 92.001 68.5s55 52.5 85 88.5c63.333 77.333 95 172.333 95 285z" />
    <glyph glyph-name="colon" unicode=":" horiz-adv-x="213" 
d="M80 445v53h53v-53h-53zM80 132v53h53v-53h-53z" />
    <glyph glyph-name="semicolon" unicode=";" horiz-adv-x="213" 
d="M80 445v53h53v-53h-53zM80 185h53v-49l-42 -77h-23l12 61v65z" />
    <glyph glyph-name="less" unicode="&#x3c;" horiz-adv-x="410" 
d="M327 125l-297 206l297 206l19 -27l-260 -179l260 -179z" />
    <glyph glyph-name="equal" unicode="=" horiz-adv-x="543" 
d="M70 477h403v-40h-403v40zM70 273h403v-40h-403v40z" />
    <glyph glyph-name="greater" unicode="&#x3e;" horiz-adv-x="410" 
d="M380 331l-297 -206l-19 27l260 179l-260 179l19 27z" />
    <glyph glyph-name="question" unicode="?" horiz-adv-x="474" 
d="M207 166l-38 -0.000976562c0 38.667 7.16699 74.167 21.5 106.5s31.833 59.5 52.5 81.5l61 64c49.333 48.667 74 94.667 74 138s-14.167 75.833 -42.5 97.5s-69 32.5 -122 32.5s-101.5 -14.667 -145.5 -44l-18 30c20 16 46 28.833 78 38.5s64.333 14.5 97 14.5
c58.667 0 106.5 -14.167 143.5 -42.5s55.5 -70.166 55.5 -125.499c0 -51.333 -25.333 -102.333 -76 -153l-64 -64.5c-21.333 -21.667 -39.5 -47.5 -54.5 -77.5s-22.5 -62 -22.5 -96zM157 19.999c0 9.33301 3.16699 17 9.5 23s13.833 9 22.5 9s16.167 -3 22.5 -9
s9.5 -13.667 9.5 -23s-3.16699 -17 -9.5 -23s-13.833 -9 -22.5 -9s-16.167 3 -22.5 9s-9.5 13.667 -9.5 23z" />
    <glyph glyph-name="at" unicode="@" horiz-adv-x="911" 
d="M476 575l-118 -224h183zM640 41c-62.667 -36 -140.331 -54.001 -232.998 -54.001s-168.667 30.667 -228 92s-89 139.333 -89 234c0 113.333 40.667 211.333 122 294s176.666 124 285.999 124c92 0 168.833 -32 230.5 -96s92.5 -142 92.5 -234
c0 -74 -13.5 -133.167 -40.5 -177.5s-64.167 -66.5 -111.5 -66.5c-29.333 0 -51 8.66699 -65 26s-25.667 41.666 -35 72.999l-19 66h-208l-83 -157h-38l246 458h26l108 -351c8.66699 -26.667 16.334 -45.667 23.001 -57c10.667 -19.333 27.667 -29 51 -29
c36 0 63.667 19 83 57s29 89.333 29 154c0 85.333 -27.833 157 -83.5 215s-126.167 87 -211.5 87c-64.667 0 -125.334 -17.667 -182.001 -53s-101.834 -82.666 -135.501 -141.999s-50.5 -122.666 -50.5 -189.999c0 -84.667 27.333 -155.167 82 -211.5
s123.5 -84.5 206.5 -84.5s155.167 16 216.5 48z" />
    <glyph glyph-name="A" unicode="A" horiz-adv-x="663" 
d="M170 248l-103 -248h-51l301 720h28l302 -720h-54l-103 248h-320zM328 640c-0.666992 -0.666992 -2 -4.66797 -4 -12.001c-9.33301 -28.667 -18.333 -53 -27 -73l-110 -266h286l-110 265c-23.333 50.667 -35 79.334 -35 86.001z" />
    <glyph glyph-name="B" unicode="B" horiz-adv-x="629" 
d="M132 713c52 4 105.167 6.00293 159.5 6.00293s101.333 -13.333 141 -40s59.5 -65.334 59.5 -116.001c0 -38 -10.5 -73.333 -31.5 -106s-46.167 -57.334 -75.5 -74.001c47.333 -14.667 87 -40 119 -76s48 -76.333 48 -121c0 -62.667 -19.833 -110.334 -59.5 -143.001
s-94 -49 -163 -49s-134.833 2.66699 -197.5 8v711zM455 77.5029c31.333 27 47 61.5 47 103.5s-15.167 78.333 -45.5 109s-71.833 51.667 -124.5 63c-24.667 5.33301 -53.167 8 -85.5 8h-66.5v-319c29.333 -3.33301 81 -5 155 -5c48.667 0 88.667 13.5 120 40.5z
M398.5 649.003c-30.333 20 -64.333 30 -102 30s-76.5 -1.33301 -116.5 -4v-273h49c24 0 59.333 -2 106 -6c30 16 55.667 39 77 69s32 63.167 32 99.5s-15.167 64.5 -45.5 84.5z" />
    <glyph glyph-name="C" unicode="C" horiz-adv-x="745" 
d="M470 -12c-104 0 -193.334 35.502 -268.001 106.502s-112 158.667 -112 263s32.667 192 98 263s149 106.5 251 106.5c80 0 161 -13.333 243 -40l-13 -40c-80 24 -156.667 36 -230 36c-87.333 0 -158.666 -31.333 -213.999 -94s-83 -139.334 -83 -230.001
s32.167 -167.834 96.5 -231.501s141.5 -95.5 231.5 -95.5c78.667 0 146.667 12 204 36l15 -34c-25.333 -14.667 -58.5 -26 -99.5 -34s-80.833 -12 -119.5 -12z" />
    <glyph glyph-name="D" unicode="D" horiz-adv-x="815" 
d="M361 35c94 0 169.502 25.499 226.502 76.499s85.5 127.833 85.5 230.5s-32.167 184.334 -96.5 245.001s-143.833 91 -238.5 91c-60.667 0 -113.334 -1.66699 -158.001 -5v-630c43.333 -5.33301 103.666 -8 180.999 -8zM338.002 721.999c110 0 202 -34.168 276 -102.501
s111 -161.166 111 -278.499c0 -59.333 -9.5 -111.833 -28.5 -157.5s-45.167 -82.167 -78.5 -109.5c-68.667 -55.333 -154.334 -83 -257.001 -83c-67.333 0 -143.666 3.66699 -228.999 11v713c68 4.66699 136.667 7 206 7z" />
    <glyph glyph-name="E" unicode="E" horiz-adv-x="535" 
d="M132 0v715h332v-42h-284v-263h257v-41h-257v-327h295v-42h-343z" />
    <glyph glyph-name="F" unicode="F" horiz-adv-x="553" 
d="M132 0v715h365v-42h-317v-263h290v-41h-290v-369h-48z" />
    <glyph glyph-name="G" unicode="G" horiz-adv-x="822" 
d="M225 589c-55.333 -62.667 -83 -139.501 -83 -230.501s31.333 -168.167 94 -231.5s139 -95 229 -95c77.333 0 141.666 10.667 192.999 32v294h48v-316c-58 -36 -139.167 -54 -243.5 -54s-192.5 35.833 -264.5 107.5s-108 159.334 -108 263.001s32.667 191 98 262
s149 106.5 251 106.5c80 0 161 -13.333 243 -40l-13 -40c-80 24 -156.667 36 -230 36c-87.333 0 -158.666 -31.333 -213.999 -94z" />
    <glyph glyph-name="H" unicode="H" horiz-adv-x="851" 
d="M671 0v358h-491v-358h-48v715h48v-314h491v314h48v-715h-48z" />
    <glyph glyph-name="I" unicode="I" horiz-adv-x="312" 
d="M132 0v715h48v-715h-48z" />
    <glyph glyph-name="J" unicode="J" horiz-adv-x="312" 
d="M132 80v634.998h48v-603c0 -89.333 -18.667 -160.666 -56 -213.999c-18.667 -27.333 -37.667 -50.166 -57 -68.499s-43 -37.5 -71 -57.5l-21 31c104.667 76.667 157 169 157 277z" />
    <glyph glyph-name="K" unicode="K" horiz-adv-x="620" 
d="M562 715l-304 -346.001l140.5 -163c53 -60 87.333 -97 103 -111s28 -24.5 37 -31.5s22.833 -14.667 41.5 -23s38.667 -13.833 60 -16.5l-1 -32c-40 0.666992 -73 6.83398 -99 18.501s-48.667 27 -68 46s-61.5 65.667 -126.5 140l-146.5 170.5l307 348h56zM180 714.999
v-715h-48v715h48z" />
    <glyph glyph-name="L" unicode="L" horiz-adv-x="531" 
d="M132 0v715h48v-671h329v-44h-377z" />
    <glyph glyph-name="M" unicode="M" horiz-adv-x="940" 
d="M470 37l-27 0.000976562l-209 506c-12 28 -21.667 52.667 -29 74l-10 -76l-82 -541h-49l118 721h28l223 -530c11.333 -24.667 20.333 -48 27 -70c2 7.33301 12.333 30.333 31 69l249 531h27l109 -721h-50l-78 543c-5.33301 34 -8 59.667 -8 77
c-0.666992 -0.666992 -2.16699 -3.83398 -4.5 -9.50098l-12 -28l-17.5 -40.5z" />
    <glyph glyph-name="N" unicode="N" horiz-adv-x="875" 
d="M178 601l1.99902 -85v-516h-48v721h22l471 -543c32 -38 56.667 -68.333 74 -91c-2.66699 32 -4 68.667 -4 110v518h48v-721h-22l-480 553c-33.333 38 -54.666 63.333 -63.999 76z" />
    <glyph glyph-name="O" unicode="O" 
d="M90 358c0 104 33.167 191.5 99.5 262.5s150.166 106.5 251.499 106.5s185.333 -35.5 252 -106.5s100 -158.5 100 -262.5s-33.333 -191.667 -100 -263s-150.667 -107 -252 -107s-185.166 35.667 -251.499 107s-99.5 159 -99.5 263zM142 358
c0 -92 27.834 -169.333 83.501 -232s127.667 -94 216 -94s160.333 31.333 216 94s83.5 140 83.5 232s-27.833 169.167 -83.5 231.5s-127.834 93.5 -216.501 93.5s-160.667 -31.167 -216 -93.5s-83 -139.5 -83 -231.5z" />
    <glyph glyph-name="P" unicode="P" horiz-adv-x="581" 
d="M132 0v711c55.333 5.33301 109 8 161 8c70 0 126.167 -16.333 168.5 -49s63.5 -81.834 63.5 -147.501s-28.833 -119.667 -86.5 -162s-126.5 -63.5 -206.5 -63.5h-11v33h7c66 0 123.333 17.333 172 52s73 79.834 73 135.501s-17 96 -51 121s-79.667 37.5 -137 37.5
c-30 0 -65 -1.33301 -105 -4v-672h-48z" />
    <glyph glyph-name="Q" unicode="Q" 
d="M90 358c0 104 33.167 191.5 99.5 262.5s150.166 106.5 251.499 106.5s185.333 -35.5 252 -106.5s100 -158.5 100 -262.5c0 -61.333 -12.5 -118.166 -37.5 -170.499s-59.5 -95.5 -103.5 -129.5c136.667 -82.667 242 -136.667 316 -162c88 -30 167.333 -45 238 -45
c40.667 0 87 5.33301 139 16s89.333 21.667 112 33l12 -28c-26 -13.333 -65.833 -26.333 -119.5 -39s-101.5 -19 -143.5 -19s-86.5 5.16699 -133.5 15.5s-87.333 21.166 -121 32.499s-75.5 29.333 -125.5 54s-85.833 43.167 -107.5 55.5l-105.5 60.5
c-52.667 -29.333 -110 -44 -172 -44c-101.333 0 -185.166 35.667 -251.499 107s-99.5 159 -99.5 263zM142 358c0 -92 27.835 -169.333 83.502 -232s127.5 -94 215.5 -94c48 0 91.333 9.66699 130 29c-83.333 56.667 -149 85 -197 85c-30 0 -54.333 -5.33301 -73 -16l-16 29
c24.667 16.667 55 25 91 25s72.167 -8.66699 108.5 -26s78.166 -42 125.499 -74c41.333 29.333 73.5 68 96.5 116s34.5 100.667 34.5 158c0 92 -27.833 169.167 -83.5 231.5s-127.834 93.5 -216.501 93.5s-160.667 -31.167 -216 -93.5s-83 -139.5 -83 -231.5z" />
    <glyph glyph-name="R" unicode="R" horiz-adv-x="658" 
d="M132 0l-0.00195312 711.998c63.333 4.66699 116.333 7 159 7c68 0 124 -17.5 168 -52.5s66 -84.5 66 -148.5c0 -43.333 -12.667 -83.666 -38 -120.999s-53.666 -67 -84.999 -89l91.5 -121.5c36.333 -47 59.833 -76.5 70.5 -88.5c40.667 -43.333 86.667 -68 138 -74
l-1 -32c-40.667 0.666992 -73.667 6.83398 -99 18.501s-49.5 29.5 -72.5 53.5s-80.167 98.667 -171.5 224c-65.333 0 -124.666 2 -177.999 6v-294h-48zM328.998 327.998c29.333 0 60.667 19.333 94 58s50 83.5 50 134.5s-17.167 89.667 -51.5 116s-79.833 39.5 -136.5 39.5
c-30 0 -65 -1.33301 -105 -4v-339c53.333 -3.33301 103 -5 149 -5z" />
    <glyph glyph-name="S" unicode="S" horiz-adv-x="547" 
d="M441 652c-48.667 20.667 -96.998 31 -144.998 31c-97.333 0 -146 -36 -146 -108c0 -31.333 11 -60.5 33 -87.5s48.667 -51 80 -72l94 -64.5c31.333 -22 58 -48.333 80 -79s33 -64 33 -100c0 -60.667 -20.333 -106.5 -61 -137.5s-96.834 -46.5 -168.501 -46.5
s-132.834 18.333 -183.501 55l24 36c48 -31.333 100.667 -47 158 -47s101.333 11.5 132 34.5s46 56.167 46 99.5c0 30 -11 58.5 -33 85.5s-48.667 51.333 -80 73l-94 66.5c-31.333 22.667 -58 49.667 -80 81s-33 65 -33 101c0 47.333 17.5 84.833 52.5 112.5
s82.333 41.5 142 41.5s115.167 -12 166.5 -36z" />
    <glyph glyph-name="T" unicode="T" horiz-adv-x="576" 
d="M264 673h-242v42h532v-42h-242v-673h-48v673z" />
    <glyph glyph-name="U" unicode="U" horiz-adv-x="807" 
d="M404 -12c-94 0 -164.167 27.3311 -210.5 81.998s-69.5 129.334 -69.5 224.001v421h48v-421c0 -176 77.167 -264 231.5 -264s231.5 88 231.5 264v421h48v-421c0 -95.333 -23 -170.166 -69 -224.499s-116 -81.5 -210 -81.5z" />
    <glyph glyph-name="V" unicode="V" horiz-adv-x="677" 
d="M370 145l240 570.001h51l-308 -721h-28l-309 721h54l240 -568c16.667 -40.667 27 -68.667 31 -84c5.33301 21.333 15 48.666 29 81.999z" />
    <glyph glyph-name="W" unicode="W" horiz-adv-x="1040" 
d="M317 173l207 527.997h29l181 -532c14 -42 23.333 -72.333 28 -91c5.33301 22 14.666 52 27.999 90l184 547h50l-249 -721h-28l-185 530c-2.66699 8.66699 -5.5 17.334 -8.5 26.001s-5.5 16.334 -7.5 23.001s-4 12.334 -6 17.001l-4 12c-0.666992 3.33301 -1 5.33301 -1 6
c-8 -24 -18.333 -51.667 -31 -83l-209 -531h-28l-251 721h53l183 -538c8.66699 -24 15.834 -45.667 21.501 -65s8.83398 -30 9.50098 -32c3.33301 15.333 14.666 46.333 33.999 93z" />
    <glyph glyph-name="X" unicode="X" horiz-adv-x="584" 
d="M53 715h59l192 -314l200 314h53l-230 -351l231 -364h-58l-206 332l-215 -332h-53l244 370z" />
    <glyph glyph-name="Y" unicode="Y" horiz-adv-x="619" 
d="M333 0h-48v256l-269 459h58l208 -362c12 -21.333 22 -40 30 -56c2.66699 8.66699 12 26.667 28 54l208 364h55l-270 -461v-254z" />
    <glyph glyph-name="Z" unicode="Z" horiz-adv-x="631" 
d="M557 715v-22l-421 -651h429v-42h-499v23l421 650h-395v42h465z" />
    <glyph glyph-name="bracketleft" unicode="[" horiz-adv-x="344" 
d="M132 -119v834h196v-44h-148v-746h148v-44h-196z" />
    <glyph glyph-name="backslash" unicode="\" horiz-adv-x="370" 
d="M49 724l311 -722l-39 -15l-311 722z" />
    <glyph glyph-name="bracketright" unicode="]" horiz-adv-x="344" 
d="M212 715v-834h-196v44h148v746h-148v44h196z" />
    <glyph glyph-name="asciicircum" unicode="^" horiz-adv-x="362" 
d="M181 560l-99 -138l-22 16l121 203l121 -203l-22 -16z" />
    <glyph glyph-name="underscore" unicode="_" horiz-adv-x="472" 
d="M0 -37h472v-44h-472v44z" />
    <glyph glyph-name="grave" unicode="`" horiz-adv-x="270" 
d="M195 540l-155 80l57 23l133 -93z" />
    <glyph glyph-name="a" unicode="a" horiz-adv-x="597" 
d="M152 225l-93 -225h-47l272 653h27l274 -653h-51l-94 225h-288zM295 579c-10 -30 -19 -54.999 -27 -74.999l-100 -240h256l-99 239c-15.333 37.333 -25.333 62.666 -30 75.999z" />
    <glyph glyph-name="b" unicode="b" horiz-adv-x="572" 
d="M119 646c47.333 4 96.001 5.99902 146.001 5.99902s92.833 -12 128.5 -36s53.5 -59 53.5 -105c0 -34.667 -9.33301 -66.667 -28 -96s-41.334 -51.666 -68.001 -66.999c43.333 -12.667 79.333 -35.334 108 -68.001s43 -69.667 43 -111
c0 -57.333 -18.167 -100.666 -54.5 -129.999s-87.5 -44 -153.5 -44s-124.333 2.33301 -175 7v644zM210.001 327.999l-45.001 -1v-287c28.667 -2.66699 75 -4 139 -4c43.333 0 79.166 12.167 107.499 36.5s42.5 55 42.5 92s-14.167 69.333 -42.5 97
s-65.166 47.167 -110.499 58.5c-23.333 5.33301 -53.666 8 -90.999 8zM361 587.499c-27.333 17.667 -60 26.499 -98 26.499s-70.667 -1 -98 -3v-245c58 0 104.333 -1.66699 139 -5c26 14 48.833 34.5 68.5 61.5s29.5 56.833 29.5 89.5s-13.667 57.834 -41 75.501z" />
    <glyph glyph-name="c" unicode="c" horiz-adv-x="669" 
d="M625 32c-50 -28 -119.501 -42 -208.501 -42s-167.333 32 -235 96s-101.5 143.5 -101.5 238.5s29.5 174.5 88.5 238.5s135.167 96 228.5 96c75.333 0 149 -11.667 221 -35l-12 -38c-69.333 21.333 -141 32 -215 32s-136.167 -28.167 -186.5 -84.5
s-75.5 -125.333 -75.5 -207s29.167 -151.167 87.5 -208.5s125.833 -86 202.5 -86s140.334 10.667 191.001 32z" />
    <glyph glyph-name="d" unicode="d" horiz-adv-x="739" 
d="M328 34c85.333 0 153.833 22.999 205.5 68.999s77.5 115.333 77.5 208s-29.167 166.334 -87.5 221.001s-130.166 82 -215.499 82c-60.667 0 -107.334 -1.33301 -140.001 -4v-569c40 -4.66699 93.333 -7 160 -7zM308 654.999c100 0 183.499 -30.833 250.499 -92.5
s100.5 -145.5 100.5 -251.5s-30.833 -185.667 -92.5 -239s-141.167 -80 -238.5 -80c-67.333 0 -136.666 3.33301 -207.999 10v647c53.333 4 116 6 188 6z" />
    <glyph glyph-name="e" unicode="e" horiz-adv-x="497" 
d="M120 0v649h303v-40h-257v-236h232v-39h-232v-292h267v-42h-313z" />
    <glyph glyph-name="f" unicode="f" horiz-adv-x="511" 
d="M120 0v649h333v-40h-287v-236h262v-39h-262v-334h-46z" />
    <glyph glyph-name="g" unicode="g" horiz-adv-x="738" 
d="M204.5 533.5c-50.333 -56.333 -75.501 -125.5 -75.501 -207.5s28.333 -151.5 85 -208.5s123.5 -85.5 200.5 -85.5s136.833 9 179.5 27v267h46v-288c-52 -32 -125.667 -48 -221 -48s-175.666 32.333 -240.999 97s-98 144.167 -98 238.5s29.5 173.5 88.5 237.5
s135.167 96 228.5 96c75.333 0 149 -11.667 221 -35l-12 -38c-69.333 21.333 -141 32 -215 32s-136.167 -28.167 -186.5 -84.5z" />
    <glyph glyph-name="h" unicode="h" horiz-adv-x="783" 
d="M617 0v328h-451v-328h-46v649h46v-280h451v280h46v-649h-46z" />
    <glyph glyph-name="i" unicode="i" horiz-adv-x="286" 
d="M120 0v649h46v-649h-46z" />
    <glyph glyph-name="j" unicode="j" horiz-adv-x="285" 
d="M120 74v575.001h45v-546c0 -54 -8.33301 -101.667 -25 -143s-36 -73.333 -58 -96s-50.333 -46.334 -85 -71.001l-21 30c96 70 144 153.667 144 251z" />
    <glyph glyph-name="k" unicode="k" horiz-adv-x="566" 
d="M514 649l-277 -312.999c109.333 -132.667 184.166 -216.667 224.499 -252s80.5 -55.333 120.5 -60l-1 -31c-37.333 0.666992 -67.666 6.16699 -90.999 16.5s-44 24.166 -62 41.499s-56.5 59.833 -115.5 127.5l-132.5 155.5l279 315h55zM166 649.001v-649h-46v649h46z" />
    <glyph glyph-name="l" unicode="l" horiz-adv-x="480" 
d="M120 0v649h46v-607h298v-42h-344z" />
    <glyph glyph-name="m" unicode="m" horiz-adv-x="841" 
d="M421 34h-27.001l-189 459c-8 18 -16 39 -24 63c0 -0.666992 -0.5 -4.33398 -1.5 -11.001s-2.16699 -15.5 -3.5 -26.5s-2.66602 -20.167 -3.99902 -27.5l-75 -491h-45l106 653h27l202 -479c16 -40 24 -61 24 -63c4.66699 14 13.667 34.667 27 62l225 480h27l99 -653h-48
l-71 493c-4.66699 32.667 -7 54.334 -7 65.001l-29 -66z" />
    <glyph glyph-name="n" unicode="n" horiz-adv-x="795" 
d="M120 0v652.999h22l426 -490c15.333 -17.333 29.5 -34.5 42.5 -51.5s19.833 -25.833 20.5 -26.5c-1.33301 16 -2 47.333 -2 94v470h46v-653h-22l-434 498l-55 67c1.33301 -13.333 2 -44.666 2 -93.999v-467h-46z" />
    <glyph glyph-name="o" unicode="o" horiz-adv-x="814" 
d="M174 87c-62.667 64.667 -94 143.834 -94 237.501s31.333 172.834 94 237.501s140.334 97 233.001 97s170.334 -32.333 233.001 -97s94 -143.834 94 -237.501s-31.333 -172.834 -94 -237.501s-140.334 -97 -233.001 -97s-170.334 32.333 -233.001 97zM207.5 533
c-53 -56.667 -79.5 -126.167 -79.5 -208.5s26.5 -151.666 79.5 -207.999s119.667 -84.5 200 -84.5s146.833 28.167 199.5 84.5s79 125.666 79 207.999s-26.333 151.833 -79 208.5s-119.167 85 -199.5 85s-147 -28.333 -200 -85z" />
    <glyph glyph-name="p" unicode="p" horiz-adv-x="528" 
d="M120 0l-0.000976562 645c50 5.33301 102.833 8 158.5 8s102.834 -14.833 141.501 -44.5s58 -74.5 58 -134.5s-26.333 -109.167 -79 -147.5s-115 -57.5 -187 -57.5h-11v32h7c59.333 0 111 15.667 155 47s66 72 66 122s-15.5 86.333 -46.5 109s-71.833 34 -122.5 34
c-26.667 0 -58 -1.33301 -94 -4v-609h-46z" />
    <glyph glyph-name="q" unicode="q" horiz-adv-x="813" 
d="M174 87c-62.667 64.667 -94.0029 143.831 -94.0029 237.498s31.333 172.834 94 237.501s140.334 97 233.001 97s170.167 -32.333 232.5 -97s93.5 -143.667 93.5 -237c0 -55.333 -11.667 -106.666 -35 -153.999s-55.333 -86.333 -96 -117
c158.667 -94 280.667 -150.667 366 -170c44 -10.667 86.333 -16 127 -16s84.5 4.66699 131.5 14s80.5 19 100.5 29l11 -26c-25.333 -12 -62.166 -23.833 -110.499 -35.5s-93.666 -17.5 -135.999 -17.5s-87.5 5.5 -135.5 16.5s-98 28.5 -150 52.5s-92.167 43.5 -120.5 58.5
s-69.166 38.167 -122.499 69.5c-48 -26 -100 -39 -156 -39c-92.667 0 -170.334 32.333 -233.001 97zM206.997 532.997c-52.667 -56.667 -79 -126.168 -79 -208.501s26.333 -151.666 79 -207.999s119.334 -84.5 200.001 -84.5c42 0 80 8 114 24
c-75.333 50.667 -134 76 -176 76c-24 0 -46 -4.66699 -66 -14l-15 28c22.667 14.667 48 22 76 22s55.333 -5 82 -15s49.167 -20.333 67.5 -31s42.166 -25.667 71.499 -45c38.667 26 69.167 60.833 91.5 104.5s33.5 91.5 33.5 143.5c0 82 -26.5 151.333 -79.5 208
s-119.667 85 -200 85s-146.833 -28.333 -199.5 -85z" />
    <glyph glyph-name="r" unicode="r" horiz-adv-x="608" 
d="M120 0v645.999c57.333 4.66699 106 7 146 7c61.333 0 112 -15.833 152 -47.5s60 -76.834 60 -135.501c0 -39.333 -11.333 -75.666 -34 -108.999s-48.334 -60.333 -77.001 -81c79.333 -105.333 128.333 -168.333 147 -189c38 -39.333 79.333 -61.666 124 -66.999l-1 -31
c-37.333 0.666992 -67.666 6.16699 -90.999 16.5s-46.5 27.833 -69.5 52.5s-73.5 91 -151.5 199c-54 0 -107 1.66699 -159 5v-266h-46zM300 298.999c26 0 54 17.333 84 52s45 75 45 121s-15.667 81 -47 105s-72 36 -122 36c-26.667 0 -58 -1.33301 -94 -4v-305
c48 -3.33301 92.667 -5 134 -5z" />
    <glyph glyph-name="s" unicode="s" horiz-adv-x="485" 
d="M251 621c-36 0 -65.334 -8.66602 -88.001 -25.999s-34 -41.666 -34 -72.999c0 -36 15 -68.333 45 -97c21.333 -20.667 48.833 -42.5 82.5 -65.5s56.834 -39.5 69.501 -49.5s28 -23.667 46 -41c32.667 -32.667 49 -70.334 49 -113.001
c0 -55.333 -18.5 -97.166 -55.5 -125.499s-88.667 -42.5 -155 -42.5s-121.833 17.333 -166.5 52l24 35c45.333 -30.667 93.333 -46 144 -46s90.167 10.667 118.5 32s42.5 51.333 42.5 90c0 33.333 -14.333 64 -43 92c-20 20 -46.833 41.667 -80.5 65
s-57.167 40.166 -70.5 50.499s-29 24.166 -47 41.499c-34 34 -51 73.333 -51 118s15.833 79.667 47.5 105s75.5 38 131.5 38s106.333 -11 151 -33l-17 -37c-41.333 20 -89 30 -143 30z" />
    <glyph glyph-name="t" unicode="t" horiz-adv-x="517" 
d="M236 608h-220v41h485v-41h-220v-608h-45v608z" />
    <glyph glyph-name="u" unicode="u" horiz-adv-x="762" 
d="M381 -10c-90 0 -157 25.667 -201 77s-66 122.333 -66 213v369h46v-369c0 -166 73.667 -249 221 -249s221 83 221 249v369h46v-369c0 -90.667 -22 -161.667 -66 -213s-111 -77 -201 -77z" />
    <glyph glyph-name="v" unicode="v" horiz-adv-x="609" 
d="M332 136l217.001 513h48l-279 -653h-27l-279 653h50l245 -577c3.33301 10 11.666 31.333 24.999 64z" />
    <glyph glyph-name="w" unicode="w" horiz-adv-x="939" 
d="M285 158l187.001 478.001h29l163 -481l24 -81c2 12.667 10.333 39.334 25 80.001l166 495h48l-226 -653h-27c-111.333 319.333 -169 485.333 -173 498l-18 53c-3.33301 -11.333 -12.333 -35 -27 -71l-189 -480h-27l-228 653h51l165 -487
c9.33301 -26.667 18 -56.334 26 -89.001c3.33301 13.333 13.666 41.666 30.999 84.999z" />
    <glyph glyph-name="x" unicode="x" horiz-adv-x="518" 
d="M41 649h56l173 -281l181 281h50l-208 -318l209 -331h-55l-186 298l-194 -298h-51l222 336z" />
    <glyph glyph-name="y" unicode="y" horiz-adv-x="559" 
d="M302 0h-45v232l-245 417h55l189 -322c14.667 -29.333 23 -45 25 -47c4 8.66699 12.333 24 25 46l189 323h52l-245 -419v-230z" />
    <glyph glyph-name="z" unicode="z" horiz-adv-x="562" 
d="M503 649v-22l-382 -585h387v-42h-454v23l382 586h-357v40h424z" />
    <glyph glyph-name="braceleft" unicode="{" horiz-adv-x="290" 
d="M137 445c0 16.667 -3.66699 41.4961 -11 74.4961s-11 58.167 -11 75.5c0 44 9 76.167 27 96.5s48 30.5 90 30.5v-37c-24.667 0 -42.834 -7 -54.501 -21s-17.5 -38.667 -17.5 -74c0 -14 3.5 -35.833 10.5 -65.5s10.5 -52.167 10.5 -67.5c0 -72 -30.333 -118.333 -91 -139
c60.667 -20.667 91 -67 91 -139c0 -15.333 -3.5 -37.833 -10.5 -67.5s-10.5 -51.5 -10.5 -65.5c0 -35.333 5.83301 -60 17.5 -74s29.834 -21 54.501 -21v-37c-42 0 -72 10.167 -90 30.5s-27 52.5 -27 96.5c0 17.333 3.66699 42.5 11 75.5s11 57.833 11 74.5
c0 34.667 -11.333 60.834 -34 78.501s-50.334 27.834 -83.001 30.501v36c32.667 2.66699 60.334 12.834 83.001 30.501s34 43.834 34 78.501z" />
    <glyph glyph-name="bar" unicode="|" horiz-adv-x="281" 
d="M120 -224v936h41v-936h-41z" />
    <glyph glyph-name="braceright" unicode="}" horiz-adv-x="290" 
d="M153 191c0 -16.667 3.66699 -41.4961 11 -74.4961s11 -58.167 11 -75.5c0 -44 -9 -76.167 -27 -96.5s-48 -30.5 -90 -30.5v37c24.667 0 42.834 7 54.501 21s17.5 38.667 17.5 74c0 14 -3.5 35.833 -10.5 65.5s-10.5 52.167 -10.5 67.5c0 72 30.333 118.333 91 139
c-60.667 20.667 -91 67 -91 139c0 15.333 3.5 37.833 10.5 67.5s10.5 51.5 10.5 65.5c0 35.333 -5.83301 60 -17.5 74s-29.834 21 -54.501 21v37c42 0 72 -10.167 90 -30.5s27 -52.5 27 -96.5c0 -17.333 -3.66699 -42.5 -11 -75.5s-11 -57.833 -11 -74.5
c0 -34.667 11.333 -60.834 34 -78.501s50.334 -27.834 83.001 -30.501v-36c-32.667 -2.66699 -60.334 -12.834 -83.001 -30.501s-34 -43.834 -34 -78.501z" />
    <glyph glyph-name="asciitilde" unicode="~" horiz-adv-x="646" 
d="M328 364c-56.667 33.333 -95.3301 50.002 -115.997 50.002s-40.834 -9.5 -60.501 -28.5s-36.5 -39.833 -50.5 -62.5l-31 18c19.333 30.667 36.333 54 51 70c26 29.333 56.667 44 92 44c22.667 0 48 -7 76 -21c21.333 -10.667 35.166 -17.834 41.499 -21.501l22 -12.5
c8.33301 -4.66699 14.333 -7.83398 18 -9.50098l16 -7.5c7 -3.33301 12.833 -5.66602 17.5 -6.99902c12.667 -4 22.667 -6 30 -6c34 0 70.667 30.333 110 91l32 -19c-34 -54.667 -66 -88.667 -96 -102c-15.333 -7.33301 -29.166 -11 -41.499 -11s-22.5 0.833008 -30.5 2.5
s-14.833 3.16699 -20.5 4.5s-12.834 4.16602 -21.501 8.49902s-14.834 7.33301 -18.501 9s-10.167 5.16699 -19.5 10.5z" />
    <glyph glyph-name="uni00A0" unicode="&#xa0;" horiz-adv-x="360" 
 />
    <glyph glyph-name="exclamdown" unicode="&#xa1;" horiz-adv-x="284" 
d="M110 618c0 9.33301 3 17 9 23s13.667 9 23 9s17 -3 23 -9s9 -13.667 9 -23s-3 -17 -9 -23s-13.667 -9 -23 -9s-17 3 -23 9s-9 13.667 -9 23zM119 -12l5 500h36l5 -500h-46z" />
    <glyph glyph-name="cent" unicode="&#xa2;" horiz-adv-x="669" 
d="M80 325c0 92.667 28.5 170.83 85.5 234.497s130.833 96.834 221.5 99.501l14 144h40l-14 -144c65.333 -3.33301 129 -14.666 191 -33.999l-12 -37c-64.667 18.667 -125.667 29 -183 31l-58 -583c19.333 -4 39.333 -6 60 -6c73.333 0 135.333 10.667 186 32l14 -31
c-49.333 -27.333 -116 -41 -200 -41c-22 0 -43.333 2 -64 6l-13 -136h-40l14 145c-70.667 21.333 -128.667 60.833 -174 118.5s-68 124.834 -68 201.501zM127 324.996c0 -63.333 18.5 -120.332 55.5 -170.999s84.833 -86.334 143.5 -107.001l57 573
c-76 -4 -137.667 -34 -185 -90s-71 -124.333 -71 -205z" />
    <glyph glyph-name="sterling" unicode="&#xa3;" horiz-adv-x="536" 
d="M15 428h105v82c0 74 15.167 128.333 45.5 163s79.833 52 148.5 52c54 0 113.333 -10.667 178 -32l-11 -36c-56 18.667 -111.5 28 -166.5 28s-93.167 -13.333 -114.5 -40s-32 -71.667 -32 -135v-82h254v-44h-254v-340h324v-44h-477v44h105v340h-105v44z" />
    <glyph glyph-name="currency" unicode="&#xa4;" horiz-adv-x="523" 
d="M134 222c-20 28.667 -30 61.168 -30 97.501s9.66699 68.166 29 95.499l-63 64l31 31l61 -63c29.333 24 62.5 36 99.5 36s70.167 -11.333 99.5 -34l61 61l31 -31l-62 -62c20.667 -30.667 31 -64 31 -100s-10.667 -68.333 -32 -97l63 -62l-31 -31l-62 62
c-28 -22 -61 -33 -99 -33s-70.333 11.333 -97 34l-63 -63l-31 31zM148 319.001c0 -34.667 10.667 -63.334 32 -86.001s49 -34 83 -34s61.667 11.333 83 34s32 51.334 32 86.001s-10.667 63.334 -32 86.001s-49 34 -83 34s-61.667 -11.333 -83 -34s-32 -51.334 -32 -86.001z
" />
    <glyph glyph-name="yen" unicode="&#xa5;" horiz-adv-x="611" 
d="M507 327v-44h-178v-123h178v-44h-178v-116h-48v116h-177v44h177v123h-177v44h169l-261 388h58l202 -303l36 -56c0.666992 2.66699 12 20.667 34 54l202 305h55l-261 -388h169z" />
    <glyph glyph-name="brokenbar" unicode="&#xa6;" horiz-adv-x="281" 
d="M120 364v348h41v-348h-41zM120 -224v347h41v-347h-41z" />
    <glyph glyph-name="section" unicode="&#xa7;" horiz-adv-x="499" 
d="M391 384c20 -22.667 29.998 -52.1699 29.998 -88.5029s-12.667 -67.666 -38 -93.999s-57.333 -45.166 -96 -56.499c39.333 -18 70 -37.833 92 -59.5s33 -49.834 33 -84.501c0 -55.333 -18.5 -97.166 -55.5 -125.499s-84.833 -42.5 -143.5 -42.5
c-32.667 0 -65 4.83301 -97 14.5s-58 22.167 -78 37.5l21 32c44.667 -30 92.834 -45 144.501 -45s91.667 10.833 120 32.5s42.5 52.167 42.5 91.5c0 21.333 -7.16699 40.333 -21.5 57s-32.5 30 -54.5 40l-70.5 33c-25 12 -48.5 24 -70.5 36s-40.167 28.667 -54.5 50
s-21.5 46 -21.5 74c0 40.667 14.5 72.667 43.5 96s67.833 38 116.5 44c-75.333 34.667 -121 69.334 -137 104.001c-7.33301 16.667 -11 36 -11 58c0 42.667 15.5 76.5 46.5 101.5s72.833 37.5 125.5 37.5s102.667 -11.333 150 -34l-15 -35
c-41.333 20 -84.166 30 -128.499 30s-77.5 -8.5 -99.5 -25.5s-33 -39.833 -33 -68.5s10 -52.5 30 -71.5s44.167 -34.667 72.5 -47l85 -38c28.333 -13 52.5 -30.833 72.5 -53.5zM330.998 209.997c29.333 22.667 44 52.332 44 88.999s-25 68.334 -75 95.001h-28
c-15.333 0 -35 -2.5 -59 -7.5s-45.667 -16 -65 -33s-29 -39 -29 -66s9.5 -49.167 28.5 -66.5s46.5 -34.333 82.5 -51c38 4 71.667 17.333 101 40z" />
    <glyph glyph-name="dieresis" unicode="&#xa8;" horiz-adv-x="354" 
d="M40 543v53h53v-53h-53zM261 543v53h53v-53h-53z" />
    <glyph glyph-name="copyright" unicode="&#xa9;" 
d="M595 161c-36 -20 -83.8359 -29.999 -143.503 -29.999s-112.167 21.5 -157.5 64.5s-68 96.333 -68 160s19.833 117 59.5 160s87.834 64.5 144.501 64.5s110.334 -8 161.001 -24l-12 -33c-54.667 14 -101.667 21 -141 21c-50 0 -91.167 -18 -123.5 -54
s-48.5 -80.333 -48.5 -133s18.833 -97.334 56.5 -134.001s81.334 -55 131.001 -55s92.5 7.33301 128.5 22zM89.9971 358.001c0 104 33.167 191.5 99.5 262.5s150.166 106.5 251.499 106.5s185.333 -35.5 252 -106.5s100 -158.5 100 -262.5s-33.333 -191.667 -100 -263
s-150.667 -107 -252 -107s-185.166 35.667 -251.499 107s-99.5 159 -99.5 263zM217.497 594.501c-57.667 -63 -86.498 -141.667 -86.498 -236s28.833 -173.333 86.5 -237s132.167 -95.5 223.5 -95.5s166 31.833 224 95.5s87 142.667 87 237s-28.833 173 -86.5 236
s-132.334 94.5 -224.001 94.5s-166.334 -31.5 -224.001 -94.5z" />
    <glyph glyph-name="ordfeminine" unicode="&#xaa;" horiz-adv-x="402" 
d="M139 503l-44 -103h-35l131 312h20l131 -312h-35l-44 103h-124zM251 532l-42.001 102.999c-5.33301 12 -8 19.667 -8 23c-2 -4 -3.66699 -8.16699 -5 -12.5s-2.66602 -8.16602 -3.99902 -11.499l-43 -102h102z" />
    <glyph glyph-name="guillemotleft" unicode="&#xab;" horiz-adv-x="452" 
d="M373 146l-163 186l163 186l29 -24l-142 -162l142 -162zM213 146l-163 186l163 186l29 -24l-142 -162l142 -162z" />
    <glyph glyph-name="logicalnot" unicode="&#xac;" horiz-adv-x="635" 
d="M523 94v230h-453v41h494v-271h-41z" />
    <glyph glyph-name="uni00AD" unicode="&#xad;" horiz-adv-x="494" 
d="M70 364h354v-40h-354v40z" />
    <glyph glyph-name="registered" unicode="&#xae;" 
d="M90 358c0 104 33.167 191.5 99.5 262.5s150.166 106.5 251.499 106.5s185.333 -35.5 252 -106.5s100 -158.5 100 -262.5s-33.333 -191.667 -100 -263s-150.667 -107 -252 -107s-185.166 35.667 -251.499 107s-99.5 159 -99.5 263zM217.5 594.5
c-57.667 -63 -86.498 -141.667 -86.498 -236s28.833 -173.333 86.5 -237s132.167 -95.5 223.5 -95.5s166 31.833 224 95.5s87 142.667 87 237s-28.833 173 -86.5 236s-132.334 94.5 -224.001 94.5s-166.334 -31.5 -224.001 -94.5zM316.002 137l0.000976562 435.999
c66 2 107.667 3 125 3c41.333 0 75.166 -10.833 101.499 -32.5s39.5 -50 39.5 -85s-9.5 -65.167 -28.5 -90.5s-38.167 -43.333 -57.5 -54l78 -110c14.667 -20.667 33.667 -32.667 57 -36v-29c-24 0 -41.5 2.33301 -52.5 7s-22.167 15.334 -33.5 32.001l-92 132
c-24.667 0 -57 1.33301 -97 4v-177h-40zM463.003 342.999c16.667 0 33.833 11 51.5 33s26.5 47.5 26.5 76.5s-9.5 51 -28.5 66s-46.667 22.5 -83 22.5s-60.833 -0.666992 -73.5 -2v-193c34 -2 69.667 -3 107 -3z" />
    <glyph glyph-name="macron" unicode="&#xaf;" horiz-adv-x="380" 
d="M70 743h240v-40h-240v40z" />
    <glyph glyph-name="degree" unicode="&#xb0;" horiz-adv-x="360" 
d="M101 539c-20.667 22.667 -31 50.167 -31 82.5s10.333 59.666 31 81.999s46.834 33.5 78.501 33.5s58 -11.167 79 -33.5s31.5 -49.666 31.5 -81.999s-10.5 -59.833 -31.5 -82.5s-47.333 -34 -79 -34s-57.834 11.333 -78.501 34zM125.5 680.5
c-13.667 -15.667 -20.5 -35.5 -20.5 -59.5s6.83301 -43.833 20.5 -59.5s31.834 -23.5 54.501 -23.5s40.834 7.83301 54.501 23.5s20.5 35.5 20.5 59.5s-6.83301 43.833 -20.5 59.5s-31.834 23.5 -54.501 23.5s-40.834 -7.83301 -54.501 -23.5z" />
    <glyph glyph-name="plusminus" unicode="&#xb1;" horiz-adv-x="494" 
d="M225 167v155h-155v44h155v155h44v-155h155v-44h-155v-155h-44zM70 44h354v-44h-354v44z" />
    <glyph glyph-name="twosuperior" unicode="&#xb2;" horiz-adv-x="420" 
d="M60 293v36.001c146.667 122 220 214.667 220 278c0 28 -7 47.5 -21 58.5s-37.167 16.5 -69.5 16.5s-65.5 -7 -99.5 -21l-13 42c42.667 14.667 83 22 121 22c86 0 129 -39.333 129 -118c0 -74.667 -63 -165.334 -189 -272.001h222v-42h-300z" />
    <glyph glyph-name="threesuperior" unicode="&#xb3;" horiz-adv-x="395" 
d="M82 700c39.333 16.667 76.835 25.001 112.502 25.001s64 -8.33301 85 -25s31.5 -38.667 31.5 -66c0 -36.667 -20 -69.334 -60 -98.001c56 -22 84 -59.333 84 -112c0 -40 -15 -73.333 -45 -100s-67.167 -40 -111.5 -40s-83.833 9.33301 -118.5 28l16 36
c32 -14 65 -21 99 -21s61 9.16699 81 27.5s30 41.333 30 69s-13.833 49 -41.5 64s-53.834 22.5 -78.501 22.5c-4.66699 0 -9 -0.333008 -13 -1v38c28.667 0 54.5 9.33301 77.5 28s34.5 36.667 34.5 54c0 34.667 -23.667 52 -71 52c-30.667 0 -64.334 -6.66699 -101.001 -20z
" />
    <glyph glyph-name="acute" unicode="&#xb4;" horiz-adv-x="260" 
d="M220 593l-146 -53l-34 10l174 96z" />
    <glyph glyph-name="mu" unicode="&#xb5;" horiz-adv-x="746" 
d="M116 280l0.00195312 369.999h44v-370c0 -80.667 16.167 -142.667 48.5 -186s87.166 -65 164.499 -65s132.166 21.667 164.499 65s48.5 105.333 48.5 186v370h44v-370c0 -193.333 -85.667 -290 -257 -290c-106.667 0 -180 37.667 -220 113
c-12.667 -121.333 -37.667 -231.666 -75 -330.999h-44c56 146 84.333 295.667 85 449c-2 19.333 -3 39 -3 59z" />
    <glyph glyph-name="paragraph" unicode="&#xb6;" horiz-adv-x="623" 
d="M491 -133h-38v815l-39 2v-873h-38v872c-8 0.666992 -16 1 -24 1c-36 0 -68 -10 -96 -30c-34 -24.667 -51 -63.167 -51 -115.5s13.333 -95 40 -128s58 -49.833 94 -50.5v-30h-12c-74 0 -138.667 18.667 -194 56s-83 87.833 -83 151.5s21 111 63 142s95.667 46.5 161 46.5
c30.667 0 103 -3.66699 217 -11v-848z" />
    <glyph glyph-name="periodcentered" unicode="&#xb7;" horiz-adv-x="213" 
d="M80 361v53h53v-53h-53z" />
    <glyph glyph-name="cedilla" unicode="&#xb8;" horiz-adv-x="302" 
d="M92 -151c13.333 -16.667 28.832 -24.9971 46.499 -24.9971s30.834 4.66699 39.501 14s13 21.666 13 36.999s-4.5 27.666 -13.5 36.999s-19.167 14 -30.5 14s-21.333 -1.66699 -30 -5l-29 12l26 67h40l-15 -43c4.66699 0.666992 9 1 13 1c21.333 0 40 -7.5 56 -22.5
s24 -34.833 24 -59.5s-8.5 -45.334 -25.5 -62.001s-39.5 -25 -67.5 -25s-51 12.667 -69 38z" />
    <glyph glyph-name="onesuperior" unicode="&#xb9;" horiz-adv-x="212" 
d="M152 720v-425h-45v366l-61 -31l-16 34l94 56h28z" />
    <glyph glyph-name="ordmasculine" unicode="&#xba;" horiz-adv-x="425" 
d="M103 441c-28.667 31.333 -43 69.5 -43 114.5s14.333 82.833 43 113.5s65 46 109 46s80.5 -15.333 109.5 -46s43.5 -68.5 43.5 -113.5s-14.5 -83.167 -43.5 -114.5s-65.5 -47 -109.5 -47s-80.333 15.667 -109 47zM134 639.5c-19.333 -21.667 -29 -49.834 -29 -84.501
s9.66699 -62.834 29 -84.501s45.5 -32.5 78.5 -32.5s59.167 10.833 78.5 32.5s29 49.834 29 84.501s-9.66699 62.834 -29 84.501s-45.5 32.5 -78.5 32.5s-59.167 -10.833 -78.5 -32.5z" />
    <glyph glyph-name="guillemotright" unicode="&#xbb;" horiz-adv-x="452" 
d="M242 332l-163 -186l-29 24l142 162l-142 162l29 24zM402 332l-163 -186l-29 24l142 162l-142 162l29 24z" />
    <glyph glyph-name="onequarter" unicode="&#xbc;" horiz-adv-x="720" 
d="M539 0v132h-190v32l202 264h33v-254h66v-42h-66v-132h-45zM539 174v172l-131 -172h131zM192 700v-425h-45v366l-61 -31l-16 34l94 56h28zM97 -1l457 733l35 -21l-456 -732z" />
    <glyph glyph-name="onehalf" unicode="&#xbd;" horiz-adv-x="825" 
d="M192 700v-425h-45v366l-61 -31l-16 34l94 56h28zM455 0v36.001c146.667 122 220 214.667 220 278c0 28 -7 47.5 -21 58.5s-37.167 16.5 -69.5 16.5s-65.5 -7 -99.5 -21l-13 42c42.667 14.667 83 22 121 22c86 0 129 -39.333 129 -118
c0 -74.667 -63 -165.334 -189 -272.001h222v-42h-300zM97 -0.999023l457 733l35 -21l-456 -732z" />
    <glyph glyph-name="threequarters" unicode="&#xbe;" horiz-adv-x="791" 
d="M192 700v-425h-45v366l-61 -31l-16 34l94 56h28zM468 406c39.333 16.667 76.835 25.001 112.502 25.001s64 -8.33301 85 -25s31.5 -38.667 31.5 -66c0 -36.667 -20 -69.334 -60 -98.001c56 -22 84 -59.333 84 -112c0 -40 -15 -73.333 -45 -100s-67.167 -40 -111.5 -40
s-83.833 9.33301 -118.5 28l16 36c32 -14 65 -21 99 -21s61 9.16699 81 27.5s30 41.333 30 69s-13.833 49 -41.5 64s-53.834 22.5 -78.501 22.5c-4.66699 0 -9 -0.333008 -13 -1v38c28.667 0 54.5 9.33301 77.5 28s34.5 36.667 34.5 54c0 34.667 -23.667 52 -71 52
c-30.667 0 -64.334 -6.66699 -101.001 -20zM97.002 -0.999023l457 733l35 -21l-456 -732z" />
    <glyph glyph-name="questiondown" unicode="&#xbf;" horiz-adv-x="474" 
d="M267 549l38 0.000976562c0 -38.667 -7.16699 -74.167 -21.5 -106.5s-31.833 -59.5 -52.5 -81.5l-61 -63c-49.333 -49.333 -74 -95.666 -74 -138.999s14.167 -75.833 42.5 -97.5s69 -32.5 122 -32.5s101.5 14.667 145.5 44l18 -30c-20 -16 -46 -28.833 -78 -38.5
s-64.333 -14.5 -97 -14.5c-58.667 0 -106.5 14.167 -143.5 42.5s-55.5 70.166 -55.5 125.499c0 51.333 25.333 102.666 76 153.999l64 63.5c21.333 21.667 39.5 47.5 54.5 77.5s22.5 62 22.5 96zM317 695.001c0 -8.66699 -3.16699 -16.167 -9.5 -22.5
s-13.833 -9.5 -22.5 -9.5s-16.167 3.16699 -22.5 9.5s-9.5 13.833 -9.5 22.5s3.16699 16.167 9.5 22.5s13.833 9.5 22.5 9.5s16.167 -3.16699 22.5 -9.5s9.5 -13.833 9.5 -22.5z" />
    <glyph glyph-name="Agrave" unicode="&#xc0;" horiz-adv-x="663" 
d="M170 248l-103 -248h-51l301 720h28l302 -720h-54l-103 248h-320zM328 640c-0.666992 -0.666992 -2 -4.66797 -4 -12.001c-9.33301 -28.667 -18.333 -53 -27 -73l-110 -266h286l-110 265c-23.333 50.667 -35 79.334 -35 86.001zM342 756.999l-155 80l57 23l133 -93z" />
    <glyph glyph-name="Aacute" unicode="&#xc1;" horiz-adv-x="663" 
d="M170 248l-103 -248h-51l301 720h28l302 -720h-54l-103 248h-320zM328 640c-0.666992 -0.666992 -2 -4.66699 -4 -12c-9.33301 -28.667 -18.333 -53 -27 -73l-110 -266h286l-110 265c-23.333 56 -35 84.667 -35 86zM470 810l-146 -53l-34 10l174 96z" />
    <glyph glyph-name="Acircumflex" unicode="&#xc2;" horiz-adv-x="663" 
d="M170 248l-103 -248h-51l301 720h28l302 -720h-54l-103 248h-320zM328 640c-0.666992 -0.666992 -2 -4.66797 -4 -12.001c-9.33301 -28.667 -18.333 -53 -27 -73l-110 -266h286l-110 265c-23.333 50.667 -35 79.334 -35 86.001zM325 801.999l-104 -51l-13 18l117 89
l117 -89l-13 -18z" />
    <glyph glyph-name="Atilde" unicode="&#xc3;" horiz-adv-x="663" 
d="M170 248l-103 -248h-51l301 720h28l302 -720h-54l-103 248h-320zM328 640c-0.666992 -0.666992 -2 -4.66797 -4 -12.001c-9.33301 -28.667 -18.333 -53 -27 -73l-110 -266h286l-110 265c-23.333 50.667 -35 79.334 -35 86.001zM246 817.999
c-25.333 0 -50.666 -20.333 -75.999 -61l-26 17c9.33301 14.667 17.5 26.667 24.5 36s18 19.333 33 30s28 16 39 16s19.5 -0.5 25.5 -1.5s12.5 -3 19.5 -6l15 -6.5c3 -1.33301 9 -4.33301 18 -9l15.5 -8c32 -18 55 -27 69 -27c25.333 0 50.666 20.333 75.999 61l26 -17
c-9.33301 -14.667 -17.5 -26.667 -24.5 -36s-18 -19.333 -33 -30s-28 -16 -39 -16s-19.5 0.5 -25.5 1.5s-12.5 3 -19.5 6l-15 6.5c-3 1.33301 -9 4.33301 -18 9l-15.5 8c-32 18 -55 27 -69 27z" />
    <glyph glyph-name="Adieresis" unicode="&#xc4;" horiz-adv-x="663" 
d="M170 248l-103 -248h-51l301 720h28l302 -720h-54l-103 248h-320zM328 640c-0.666992 -0.666992 -2 -4.66797 -4 -12.001c-9.33301 -28.667 -18.333 -53 -27 -73l-110 -266h286l-110 265c-23.333 50.667 -35 79.334 -35 86.001zM188 759.999v53h53v-53h-53zM409 759.999
v53h53v-53h-53z" />
    <glyph glyph-name="Aring" unicode="&#xc5;" horiz-adv-x="663" 
d="M263 717.5c-10 15 -15 33.167 -15 54.5s7.83301 40.166 23.5 56.499s35.167 24.5 58.5 24.5s43 -8.16699 59 -24.5s24 -35.166 24 -56.499s-5 -39.333 -15 -54s-23.333 -24.667 -40 -30l289 -688h-54l-103 248h-320l-103 -248h-51l287 687
c-16.667 5.33301 -30 15.5 -40 30.5zM328 640c-0.666992 -0.666992 -2 -4.66797 -4 -12.001c-9.33301 -28.667 -18.333 -53 -27 -73l-110 -266h286l-110 265c-23.333 50.667 -35 79.334 -35 86.001zM285 767.999c0 -13.333 4.33301 -24.5 13 -33.5
s19.334 -13.5 32.001 -13.5s23.334 4.5 32.001 13.5s13 20.167 13 33.5s-4.33301 24.666 -13 33.999s-19.334 14 -32.001 14s-23.334 -4.66699 -32.001 -14s-13 -20.666 -13 -33.999z" />
    <glyph glyph-name="AE" unicode="&#xc6;" horiz-adv-x="847" 
d="M776 715v-42h-284v-263h257v-41h-257v-327h295v-42h-343v369h-153l-219 -369h-56l428 715h332zM444 410v224c-16.667 -33.333 -31 -60 -43 -80l-86 -144h129z" />
    <glyph glyph-name="Ccedilla" unicode="&#xc7;" horiz-adv-x="745" 
d="M448 -151c13.333 -16.667 28.8301 -24.9951 46.4971 -24.9951s30.834 4.66699 39.501 14s13 21.666 13 36.999s-4.5 27.666 -13.5 36.999s-19.167 14 -30.5 14s-21.333 -1.66699 -30 -5l-29 12l21 55c-103.333 1.33301 -191.666 37.333 -264.999 108s-110 158 -110 262
s32.667 191.5 98 262.5s149 106.5 251 106.5c80 0 161 -13.333 243 -40l-13 -40c-80 24 -156.667 36 -230 36c-87.333 0 -158.666 -31.333 -213.999 -94s-83 -139.334 -83 -230.001s32.167 -167.834 96.5 -231.501s141.5 -95.5 231.5 -95.5c78.667 0 146.667 12 204 36
l15 -34c-43.333 -25.333 -104.333 -40.333 -183 -45l-11 -32c4.66699 0.666992 9 1 13 1c21.333 0 40 -7.5 56 -22.5s24 -34.833 24 -59.5s-8.5 -45.334 -25.5 -62.001s-39.5 -25 -67.5 -25s-51 12.667 -69 38z" />
    <glyph glyph-name="Egrave" unicode="&#xc8;" horiz-adv-x="535" 
d="M132 0v715h332v-42h-284v-263h257v-41h-257v-327h295v-42h-343zM339 757l-155 80l57 23l133 -93z" />
    <glyph glyph-name="Eacute" unicode="&#xc9;" horiz-adv-x="535" 
d="M132 0v715h332v-42h-284v-263h257v-41h-257v-327h295v-42h-343zM402 810l-146 -53l-34 10l174 96z" />
    <glyph glyph-name="Ecircumflex" unicode="&#xca;" horiz-adv-x="535" 
d="M132 0v715h332v-42h-284v-263h257v-41h-257v-327h295v-42h-343zM297 802l-104 -51l-13 18l117 89l117 -89l-13 -18z" />
    <glyph glyph-name="Edieresis" unicode="&#xcb;" horiz-adv-x="535" 
d="M132 0v715h332v-42h-284v-263h257v-41h-257v-327h295v-42h-343zM154 760v53h53v-53h-53zM375 760v53h53v-53h-53z" />
    <glyph glyph-name="Igrave" unicode="&#xcc;" horiz-adv-x="312" 
d="M132 0v715h48v-715h-48zM196 757l-155 80l57 23l133 -93z" />
    <glyph glyph-name="Iacute" unicode="&#xcd;" horiz-adv-x="312" 
d="M132 0v715h48v-715h-48zM286 810l-146 -53l-34 10l174 96z" />
    <glyph glyph-name="Icircumflex" unicode="&#xce;" horiz-adv-x="312" 
d="M132 0v715h48v-715h-48zM156 802l-104 -51l-13 18l117 89l117 -89l-13 -18z" />
    <glyph glyph-name="Idieresis" unicode="&#xcf;" horiz-adv-x="312" 
d="M50 763v53h53v-53h-53zM209 763v53h53v-53h-53zM132 0v715h48v-715h-48z" />
    <glyph glyph-name="Eth" unicode="&#xd0;" horiz-adv-x="815" 
d="M6 398l126 -0.000976562v317c68 4.66699 136.667 7 206 7c110 0 202 -34.167 276 -102.5s111 -161.166 111 -278.499c0 -59.333 -9.5 -111.833 -28.5 -157.5s-45.167 -82.167 -78.5 -109.5c-68.667 -55.333 -154.334 -83 -257.001 -83
c-67.333 0 -143.666 3.66699 -228.999 11v352h-126v44zM180 397.999l180.002 -0.000976562v-44h-180v-311c43.333 -5.33301 103.666 -8 180.999 -8c94 0 169.5 25.5 226.5 76.5s85.5 127.833 85.5 230.5s-32.167 184.334 -96.5 245.001s-143.833 91 -238.5 91
c-60.667 0 -113.334 -1.66699 -158.001 -5v-275z" />
    <glyph glyph-name="Ntilde" unicode="&#xd1;" horiz-adv-x="875" 
d="M174 608l1.99805 -82v-526h-44v721h22l474 -552c30.667 -34 55.334 -63.667 74.001 -89c-2.66699 32 -4 68 -4 108v527h45v-721h-22l-484 563c-33.333 36 -54.666 60.333 -63.999 73zM358.998 818c-25.333 0 -50.666 -20.333 -75.999 -61l-26 17
c9.33301 14.667 17.5 26.667 24.5 36s18 19.333 33 30s28 16 39 16s19.5 -0.5 25.5 -1.5s12.5 -3 19.5 -6l15 -6.5c3 -1.33301 9 -4.33301 18 -9l15.5 -8c32 -18 55 -27 69 -27c25.333 0 50.666 20.333 75.999 61l26 -17c-9.33301 -14.667 -17.5 -26.667 -24.5 -36
s-18 -19.333 -33 -30s-28 -16 -39 -16s-19.5 0.5 -25.5 1.5s-12.5 3 -19.5 6l-15 6.5c-3 1.33301 -9 4.33301 -18 9l-15.5 8c-32 18 -55 27 -69 27z" />
    <glyph glyph-name="Ograve" unicode="&#xd2;" 
d="M90 358c0 104 33.167 191.5 99.5 262.5s150.166 106.5 251.499 106.5s185.333 -35.5 252 -106.5s100 -158.5 100 -262.5s-33.333 -191.667 -100 -263s-150.667 -107 -252 -107s-185.166 35.667 -251.499 107s-99.5 159 -99.5 263zM142 358
c0 -92 27.834 -169.333 83.501 -232s127.667 -94 216 -94s160.333 31.333 216 94s83.5 140 83.5 232s-27.833 169.167 -83.5 231.5s-127.834 93.5 -216.501 93.5s-160.667 -31.167 -216 -93.5s-83 -139.5 -83 -231.5zM496.001 757l-155 80l57 23l133 -93z" />
    <glyph glyph-name="Oacute" unicode="&#xd3;" 
d="M90 358c0 104 33.167 191.5 99.5 262.5s150.166 106.5 251.499 106.5s185.333 -35.5 252 -106.5s100 -158.5 100 -262.5s-33.333 -191.667 -100 -263s-150.667 -107 -252 -107s-185.166 35.667 -251.499 107s-99.5 159 -99.5 263zM142 358
c0 -92 27.834 -169.333 83.501 -232s127.667 -94 216 -94s160.333 31.333 216 94s83.5 140 83.5 232s-27.833 169.167 -83.5 231.5s-127.834 93.5 -216.501 93.5s-160.667 -31.167 -216 -93.5s-83 -139.5 -83 -231.5zM569.001 810l-146 -53l-34 10l174 96z" />
    <glyph glyph-name="Ocircumflex" unicode="&#xd4;" 
d="M90 358c0 104 33.167 191.5 99.5 262.5s150.166 106.5 251.499 106.5s185.333 -35.5 252 -106.5s100 -158.5 100 -262.5s-33.333 -191.667 -100 -263s-150.667 -107 -252 -107s-185.166 35.667 -251.499 107s-99.5 159 -99.5 263zM142 358
c0 -92 27.834 -169.333 83.501 -232s127.667 -94 216 -94s160.333 31.333 216 94s83.5 140 83.5 232s-27.833 169.167 -83.5 231.5s-127.834 93.5 -216.501 93.5s-160.667 -31.167 -216 -93.5s-83 -139.5 -83 -231.5zM458.001 802l-104 -51l-13 18l117 89l117 -89l-13 -18z
" />
    <glyph glyph-name="Otilde" unicode="&#xd5;" 
d="M90 358c0 104 33.167 191.5 99.5 262.5s150.166 106.5 251.499 106.5s185.333 -35.5 252 -106.5s100 -158.5 100 -262.5s-33.333 -191.667 -100 -263s-150.667 -107 -252 -107s-185.166 35.667 -251.499 107s-99.5 159 -99.5 263zM142 358
c0 -92 27.834 -169.333 83.501 -232s127.667 -94 216 -94s160.333 31.333 216 94s83.5 140 83.5 232s-27.833 169.167 -83.5 231.5s-127.834 93.5 -216.501 93.5s-160.667 -31.167 -216 -93.5s-83 -139.5 -83 -231.5zM379.001 818c-25.333 0 -50.666 -20.333 -75.999 -61
l-26 17c9.33301 14.667 17.5 26.667 24.5 36s18 19.333 33 30s28 16 39 16s19.5 -0.5 25.5 -1.5s12.5 -3 19.5 -6l15 -6.5c3 -1.33301 9 -4.33301 18 -9l15.5 -8c32 -18 55 -27 69 -27c25.333 0 50.666 20.333 75.999 61l26 -17c-9.33301 -14.667 -17.5 -26.667 -24.5 -36
s-18 -19.333 -33 -30s-28 -16 -39 -16s-19.5 0.5 -25.5 1.5s-12.5 3 -19.5 6l-15 6.5c-3 1.33301 -9 4.33301 -18 9l-15.5 8c-32 18 -55 27 -69 27z" />
    <glyph glyph-name="Odieresis" unicode="&#xd6;" 
d="M90 358c0 104 33.167 191.5 99.5 262.5s150.166 106.5 251.499 106.5s185.333 -35.5 252 -106.5s100 -158.5 100 -262.5s-33.333 -191.667 -100 -263s-150.667 -107 -252 -107s-185.166 35.667 -251.499 107s-99.5 159 -99.5 263zM142 358
c0 -92 27.834 -169.333 83.501 -232s127.667 -94 216 -94s160.333 31.333 216 94s83.5 140 83.5 232s-27.833 169.167 -83.5 231.5s-127.834 93.5 -216.501 93.5s-160.667 -31.167 -216 -93.5s-83 -139.5 -83 -231.5zM321.001 760v53h53v-53h-53zM542.001 760v53h53v-53h-53
z" />
    <glyph glyph-name="multiply" unicode="&#xd7;" horiz-adv-x="523" 
d="M101 510l160 -161l161 161l31 -31l-161 -161l161 -160l-31 -31l-161 160l-160 -160l-31 31l160 160l-160 161z" />
    <glyph glyph-name="Oslash" unicode="&#xd8;" 
d="M90 358c0 104 33.168 191.5 99.501 262.5s150.166 106.5 251.499 106.5c71.333 0 135.333 -19 192 -57l61 89l32 -23l-61 -89c40.667 -34 72.167 -76 94.5 -126s33.5 -104.333 33.5 -163c0 -104 -33.333 -191.667 -100 -263s-150.667 -107 -252 -107
c-71.333 0 -135.333 19 -192 57l-60 -87l-32 22l61 88c-40.667 34.667 -72.167 77 -94.5 127s-33.5 104.333 -33.5 163zM741.001 358c0 104 -34.334 187.667 -103.001 251l-363 -527c48 -33.333 103.333 -50 166 -50c88.667 0 160.834 31.333 216.501 94s83.5 140 83.5 232z
M225 589.5c-55.333 -62.333 -83 -142.333 -83 -240s34 -178.5 102 -242.5l363 526c-48 33.333 -103.333 50 -166 50c-88.667 0 -160.667 -31.167 -216 -93.5z" />
    <glyph glyph-name="Ugrave" unicode="&#xd9;" horiz-adv-x="807" 
d="M404 -12c-94 0 -164.167 27.3311 -210.5 81.998s-69.5 129.334 -69.5 224.001v421h48v-421c0 -176 77.167 -264 231.5 -264s231.5 88 231.5 264v421h48v-421c0 -95.333 -23 -170.166 -69 -224.499s-116 -81.5 -210 -81.5zM447 756.998l-155 80l57 23l133 -93z" />
    <glyph glyph-name="Uacute" unicode="&#xda;" horiz-adv-x="807" 
d="M404 -12c-94 0 -164.167 27.3311 -210.5 81.998s-69.5 129.334 -69.5 224.001v421h48v-421c0 -176 77.167 -264 231.5 -264s231.5 88 231.5 264v421h48v-421c0 -95.333 -23 -170.166 -69 -224.499s-116 -81.5 -210 -81.5zM517 809.998l-146 -53l-34 10l174 96z" />
    <glyph glyph-name="Ucircumflex" unicode="&#xdb;" horiz-adv-x="807" 
d="M404 -12c-94 0 -164.167 27.3311 -210.5 81.998s-69.5 129.334 -69.5 224.001v421h48v-421c0 -176 77.167 -264 231.5 -264s231.5 88 231.5 264v421h48v-421c0 -95.333 -23 -170.166 -69 -224.499s-116 -81.5 -210 -81.5zM417 801.998l-104 -51l-13 18l117 89l117 -89
l-13 -18z" />
    <glyph glyph-name="Udieresis" unicode="&#xdc;" horiz-adv-x="807" 
d="M404 -12c-94 0 -164.167 27.3311 -210.5 81.998s-69.5 129.334 -69.5 224.001v421h48v-421c0 -176 77.167 -264 231.5 -264s231.5 88 231.5 264v421h48v-421c0 -95.333 -23 -170.166 -69 -224.499s-116 -81.5 -210 -81.5zM280 759.998v53h53v-53h-53zM501 759.998v53h53
v-53h-53z" />
    <glyph glyph-name="Yacute" unicode="&#xdd;" horiz-adv-x="619" 
d="M333 0h-48v256l-269 459h58l208 -362c12 -21.333 22 -40 30 -56c2.66699 8.66699 12 26.667 28 54l208 364h55l-270 -461v-254zM412 810l-146 -53l-34 10l174 96z" />
    <glyph glyph-name="Thorn" unicode="&#xde;" horiz-adv-x="581" 
d="M132 0v715h48v-175c52 2.66699 89.667 4 113 4c154.667 0 232 -60 232 -180c0 -66 -27.833 -115.5 -83.5 -148.5s-124.167 -49.5 -205.5 -49.5h-15v33h10c68 0 125.333 12.833 172 38.5s70 65.667 70 120s-16.5 91.833 -49.5 112.5s-79.167 31 -138.5 31
c-30 0 -65 -1.33301 -105 -4v-497h-48z" />
    <glyph glyph-name="germandbls" unicode="&#xdf;" horiz-adv-x="978" 
d="M251 621c-36 0 -65.334 -8.66602 -88.001 -25.999s-34 -41.666 -34 -72.999c0 -36 15 -68.333 45 -97c21.333 -20.667 48.833 -42.5 82.5 -65.5s56.834 -39.5 69.501 -49.5s28 -23.667 46 -41c32.667 -32.667 49 -70.334 49 -113.001
c0 -55.333 -18.5 -97.166 -55.5 -125.499s-88.667 -42.5 -155 -42.5s-121.833 17.333 -166.5 52l24 35c45.333 -30.667 93.333 -46 144 -46s90.167 10.667 118.5 32s42.5 51.333 42.5 90c0 33.333 -14.333 64 -43 92c-20 20 -46.833 41.667 -80.5 65
s-57.167 40.166 -70.5 50.499s-29 24.166 -47 41.499c-34 34 -51 73.333 -51 118s15.833 79.667 47.5 105s75.5 38 131.5 38s106.333 -11 151 -33l-17 -37c-41.333 20 -89 30 -143 30zM743.999 621.001c-36 0 -65.334 -8.66602 -88.001 -25.999s-34 -41.666 -34 -72.999
c0 -36 15 -68.333 45 -97c21.333 -20.667 48.833 -42.5 82.5 -65.5s56.834 -39.5 69.501 -49.5s27.667 -23.667 45 -41c33.333 -32.667 50 -70.334 50 -113.001c0 -55.333 -18.5 -97.166 -55.5 -125.499s-88.667 -42.5 -155 -42.5s-121.833 17.333 -166.5 52l24 35
c45.333 -30.667 93.333 -46 144 -46s90.167 10.667 118.5 32s42.5 51.333 42.5 90c0 33.333 -14 64 -42 92c-20.667 20 -47.834 41.667 -81.501 65s-57.167 40.166 -70.5 50.499s-29 24.166 -47 41.499c-34 34 -51 73.333 -51 118s15.833 79.667 47.5 105
s75.334 38 131.001 38s106.167 -11 151.5 -33l-17 -37c-41.333 20 -89 30 -143 30z" />
    <glyph glyph-name="agrave" unicode="&#xe0;" horiz-adv-x="597" 
d="M152 225l-93 -225h-47l272 653h27l274 -653h-51l-94 225h-288zM295 579c-10 -30 -19 -54.999 -27 -74.999l-100 -240h256l-99 239c-15.333 37.333 -25.333 62.666 -30 75.999zM333 701.001l-155 80l57 23l133 -93z" />
    <glyph glyph-name="aacute" unicode="&#xe1;" horiz-adv-x="597" 
d="M152 225l-93 -225h-47l272 653h27l274 -653h-51l-94 225h-288zM295 579c-10 -30 -19 -54.999 -27 -74.999l-100 -240h256l-99 239c-15.333 37.333 -25.333 62.666 -30 75.999zM423 754.001l-146 -53l-34 10l174 96z" />
    <glyph glyph-name="acircumflex" unicode="&#xe2;" horiz-adv-x="597" 
d="M152 225l-93 -225h-47l272 653h27l274 -653h-51l-94 225h-288zM295 579c-10 -30 -19 -54.999 -27 -74.999l-100 -240h256l-99 239c-15.333 37.333 -25.333 62.666 -30 75.999zM293 752.001l-104 -51l-13 18l117 89l117 -89l-13 -18z" />
    <glyph glyph-name="atilde" unicode="&#xe3;" horiz-adv-x="597" 
d="M152 225l-93 -225h-47l272 653h27l274 -653h-51l-94 225h-288zM295 579c-10 -30 -19 -54.999 -27 -74.999l-100 -240h256l-99 239c-15.333 37.333 -25.333 62.666 -30 75.999zM214 759.001c-25.333 0 -50.666 -20.333 -75.999 -61l-26 17
c9.33301 14.667 17.5 26.667 24.5 36s18 19.333 33 30s28 16 39 16s19.5 -0.5 25.5 -1.5s12.5 -3 19.5 -6l15 -6.5c3 -1.33301 9 -4.33301 18 -9l15.5 -8c32 -18 55 -27 69 -27c25.333 0 50.666 20.333 75.999 61l26 -17c-9.33301 -14.667 -17.5 -26.667 -24.5 -36
s-18 -19.333 -33 -30s-28 -16 -39 -16s-19.5 0.5 -25.5 1.5s-12.5 3 -19.5 6l-15 6.5c-3 1.33301 -9 4.33301 -18 9l-15.5 8c-32 18 -55 27 -69 27z" />
    <glyph glyph-name="adieresis" unicode="&#xe4;" horiz-adv-x="597" 
d="M152 225l-93 -225h-47l272 653h27l274 -653h-51l-94 225h-288zM295 579c-10 -30 -19 -54.999 -27 -74.999l-100 -240h256l-99 239c-15.333 37.333 -25.333 62.666 -30 75.999zM156 704.001v53h53v-53h-53zM377 704.001v53h53v-53h-53z" />
    <glyph glyph-name="aring" unicode="&#xe5;" horiz-adv-x="598" 
d="M231.5 651.5c-10.333 15 -15.501 33.167 -15.501 54.5s7.83301 40.166 23.5 56.499s35.167 24.5 58.5 24.5s43 -8.16699 59 -24.5s24 -35.166 24 -56.499s-5.16699 -39.5 -15.5 -54.5s-24.166 -25.167 -41.499 -30.5l262 -621h-49l-94 226h-292l-93 -226h-46l260 621
c-16.667 5.33301 -30.167 15.5 -40.5 30.5zM295.999 582c-0.666992 -0.666992 -2 -4.33301 -4 -11c-4.66699 -15.333 -13 -37.333 -25 -66l-100 -242h260l-100 241c-20.667 46 -31 72 -31 78zM252.999 702.001c0 -13.333 4.33301 -24.5 13 -33.5s19.334 -13.5 32.001 -13.5
s23.334 4.5 32.001 13.5s13 20.167 13 33.5s-4.33301 24.666 -13 33.999s-19.334 14 -32.001 14s-23.334 -4.66699 -32.001 -14s-13 -20.666 -13 -33.999z" />
    <glyph glyph-name="ae" unicode="&#xe6;" horiz-adv-x="774" 
d="M700 650v-38h-258v-239h234v-38h-234v-297h268v-38h-311v335h-140l-198 -335h-51l389 650h301zM399 373v203c-14 -28 -27 -52 -39 -72l-78 -131h117z" />
    <glyph glyph-name="ccedilla" unicode="&#xe7;" horiz-adv-x="669" 
d="M400 -151c13.333 -16.667 28.8301 -24.9961 46.4971 -24.9961s30.834 4.66699 39.501 14s13 21.666 13 36.999s-4.5 27.666 -13.5 36.999s-19.167 14 -30.5 14s-21.333 -1.66699 -30 -5l-29 12l22 57c-93.333 2 -173 34.833 -239 98.5s-99 142.667 -99 237
s29.5 173.5 88.5 237.5s135.167 96 228.5 96c75.333 0 149 -11.667 221 -35l-12 -38c-69.333 21.333 -141 32 -215 32s-136.167 -28.167 -186.5 -84.5s-75.5 -125.333 -75.5 -207s29.167 -151.167 87.5 -208.5s125.833 -86 202.5 -86s140.334 10.667 191.001 32l15 -32
c-39.333 -22.667 -94.666 -36.334 -165.999 -41.001l-12 -34c4.66699 0.666992 9 1 13 1c21.333 0 40 -7.5 56 -22.5s24 -34.833 24 -59.5s-8.5 -45.334 -25.5 -62.001s-39.5 -25 -67.5 -25s-51 12.667 -69 38z" />
    <glyph glyph-name="egrave" unicode="&#xe8;" horiz-adv-x="497" 
d="M120 0v649h303v-40h-257v-236h232v-39h-232v-292h267v-42h-313zM327 701l-155 80l57 23l133 -93z" />
    <glyph glyph-name="eacute" unicode="&#xe9;" horiz-adv-x="497" 
d="M120 0v649h303v-40h-257v-236h232v-39h-232v-292h267v-42h-313zM371 754l-146 -53l-34 10l174 96z" />
    <glyph glyph-name="ecircumflex" unicode="&#xea;" horiz-adv-x="497" 
d="M120 0v649h303v-40h-257v-236h232v-39h-232v-292h267v-42h-313zM275 752l-104 -51l-13 18l117 89l117 -89l-13 -18z" />
    <glyph glyph-name="edieresis" unicode="&#xeb;" horiz-adv-x="497" 
d="M120 0v649h303v-40h-257v-236h232v-39h-232v-292h267v-42h-313zM131 705v53h53v-53h-53zM352 705v53h53v-53h-53z" />
    <glyph glyph-name="igrave" unicode="&#xec;" horiz-adv-x="286" 
d="M120 0v649h46v-649h-46zM176 701l-155 80l57 23l133 -93z" />
    <glyph glyph-name="iacute" unicode="&#xed;" horiz-adv-x="286" 
d="M120 0v649h46v-649h-46zM266 754l-146 -53l-34 10l174 96z" />
    <glyph glyph-name="icircumflex" unicode="&#xee;" horiz-adv-x="286" 
d="M120 0v649h46v-649h-46zM143 752l-104 -51l-13 18l117 89l117 -89l-13 -18z" />
    <glyph glyph-name="idieresis" unicode="&#xef;" horiz-adv-x="286" 
d="M47 707v53h53v-53h-53zM186 707v53h53v-53h-53zM120 0v649h46v-649h-46z" />
    <glyph glyph-name="eth" unicode="&#xf0;" horiz-adv-x="739" 
d="M120 321h-113.001v40h113v288c53.333 4 116 6 188 6c100 0 183.5 -30.833 250.5 -92.5s100.5 -145.5 100.5 -251.5s-30.833 -185.667 -92.5 -239s-141.167 -80 -238.5 -80c-67.333 0 -136.666 3.33301 -207.999 10v319zM167.999 361l161 -0.000976562v-40h-161v-280
c40 -4.66699 93.333 -7 160 -7c85.333 0 153.833 23 205.5 69s77.5 115.333 77.5 208s-29.167 166.334 -87.5 221.001s-130.166 82 -215.499 82c-60.667 0 -107.334 -1.33301 -140.001 -4v-249z" />
    <glyph glyph-name="ntilde" unicode="&#xf1;" horiz-adv-x="795" 
d="M120 0v652.999h22l430 -498c15.333 -17.333 29.5 -34.5 42.5 -51.5s19.833 -25.833 20.5 -26.5c-1.33301 16 -2 47.333 -2 94v478h42v-653h-22l-438 508l-55 67c1.33301 -13.333 2 -44.666 2 -93.999v-477h-42zM320 758.999c-25.333 0 -50.666 -20.333 -75.999 -61
l-26 17c9.33301 14.667 17.5 26.667 24.5 36s18 19.333 33 30s28 16 39 16s19.5 -0.5 25.5 -1.5s12.5 -3 19.5 -6l15 -6.5c3 -1.33301 9 -4.33301 18 -9l15.5 -8c32 -18 55 -27 69 -27c25.333 0 50.666 20.333 75.999 61l26 -17c-9.33301 -14.667 -17.5 -26.667 -24.5 -36
s-18 -19.333 -33 -30s-28 -16 -39 -16s-19.5 0.5 -25.5 1.5s-12.5 3 -19.5 6l-15 6.5c-3 1.33301 -9 4.33301 -18 9l-15.5 8c-32 18 -55 27 -69 27z" />
    <glyph glyph-name="ograve" unicode="&#xf2;" horiz-adv-x="814" 
d="M174 87c-62.667 64.667 -94 143.834 -94 237.501s31.333 172.834 94 237.501s140.334 97 233.001 97s170.334 -32.333 233.001 -97s94 -143.834 94 -237.501s-31.333 -172.834 -94 -237.501s-140.334 -97 -233.001 -97s-170.334 32.333 -233.001 97zM207.5 533
c-53 -56.667 -79.5 -126.167 -79.5 -208.5s26.5 -151.666 79.5 -207.999s119.667 -84.5 200 -84.5s146.833 28.167 199.5 84.5s79 125.666 79 207.999s-26.333 151.833 -79 208.5s-119.167 85 -199.5 85s-147 -28.333 -200 -85zM430 701l-155 80l57 23l133 -93z" />
    <glyph glyph-name="oacute" unicode="&#xf3;" horiz-adv-x="814" 
d="M174 87c-62.667 64.667 -94 143.834 -94 237.501s31.333 172.834 94 237.501s140.334 97 233.001 97s170.334 -32.333 233.001 -97s94 -143.834 94 -237.501s-31.333 -172.834 -94 -237.501s-140.334 -97 -233.001 -97s-170.334 32.333 -233.001 97zM207.5 533
c-53 -56.667 -79.5 -126.167 -79.5 -208.5s26.5 -151.666 79.5 -207.999s119.667 -84.5 200 -84.5s146.833 28.167 199.5 84.5s79 125.666 79 207.999s-26.333 151.833 -79 208.5s-119.167 85 -199.5 85s-147 -28.333 -200 -85zM545 754l-146 -53l-34 10l174 96z" />
    <glyph glyph-name="ocircumflex" unicode="&#xf4;" horiz-adv-x="814" 
d="M174 87c-62.667 64.667 -94 143.834 -94 237.501s31.333 172.834 94 237.501s140.334 97 233.001 97s170.334 -32.333 233.001 -97s94 -143.834 94 -237.501s-31.333 -172.834 -94 -237.501s-140.334 -97 -233.001 -97s-170.334 32.333 -233.001 97zM207.5 533
c-53 -56.667 -79.5 -126.167 -79.5 -208.5s26.5 -151.666 79.5 -207.999s119.667 -84.5 200 -84.5s146.833 28.167 199.5 84.5s79 125.666 79 207.999s-26.333 151.833 -79 208.5s-119.167 85 -199.5 85s-147 -28.333 -200 -85zM408 752l-104 -51l-13 18l117 89l117 -89
l-13 -18z" />
    <glyph glyph-name="otilde" unicode="&#xf5;" horiz-adv-x="814" 
d="M174 87c-62.667 64.667 -94 143.834 -94 237.501s31.333 172.834 94 237.501s140.334 97 233.001 97s170.334 -32.333 233.001 -97s94 -143.834 94 -237.501s-31.333 -172.834 -94 -237.501s-140.334 -97 -233.001 -97s-170.334 32.333 -233.001 97zM207.5 533
c-53 -56.667 -79.5 -126.167 -79.5 -208.5s26.5 -151.666 79.5 -207.999s119.667 -84.5 200 -84.5s146.833 28.167 199.5 84.5s79 125.666 79 207.999s-26.333 151.833 -79 208.5s-119.167 85 -199.5 85s-147 -28.333 -200 -85zM329 751
c-25.333 0 -50.666 -20.333 -75.999 -61l-26 17c9.33301 14.667 17.5 26.667 24.5 36s18 19.333 33 30s28 16 39 16s19.5 -0.5 25.5 -1.5s12.5 -3 19.5 -6l15 -6.5c3 -1.33301 9 -4.33301 18 -9l15.5 -8c32 -18 55 -27 69 -27c25.333 0 50.666 20.333 75.999 61l26 -17
c-9.33301 -14.667 -17.5 -26.667 -24.5 -36s-18 -19.333 -33 -30s-28 -16 -39 -16s-19.5 0.5 -25.5 1.5s-12.5 3 -19.5 6l-15 6.5c-3 1.33301 -9 4.33301 -18 9l-15.5 8c-32 18 -55 27 -69 27z" />
    <glyph glyph-name="odieresis" unicode="&#xf6;" horiz-adv-x="814" 
d="M174 87c-62.667 64.667 -94 143.834 -94 237.501s31.333 172.834 94 237.501s140.334 97 233.001 97s170.334 -32.333 233.001 -97s94 -143.834 94 -237.501s-31.333 -172.834 -94 -237.501s-140.334 -97 -233.001 -97s-170.334 32.333 -233.001 97zM207.5 533
c-53 -56.667 -79.5 -126.167 -79.5 -208.5s26.5 -151.666 79.5 -207.999s119.667 -84.5 200 -84.5s146.833 28.167 199.5 84.5s79 125.666 79 207.999s-26.333 151.833 -79 208.5s-119.167 85 -199.5 85s-147 -28.333 -200 -85zM271 704v53h53v-53h-53zM492 704v53h53v-53
h-53z" />
    <glyph glyph-name="divide" unicode="&#xf7;" horiz-adv-x="494" 
d="M215 158c0 9.33301 3.16699 17 9.5 23s13.833 9 22.5 9s16.167 -3 22.5 -9s9.5 -13.667 9.5 -23s-3.16699 -17 -9.5 -23s-13.833 -9 -22.5 -9s-16.167 3 -22.5 9s-9.5 13.667 -9.5 23zM215 466c0 9.33301 3.16699 17 9.5 23s13.833 9 22.5 9s16.167 -3 22.5 -9
s9.5 -13.667 9.5 -23s-3.16699 -17 -9.5 -23s-13.833 -9 -22.5 -9s-16.167 3 -22.5 9s-9.5 13.667 -9.5 23zM70 334h354v-44h-354v44z" />
    <glyph glyph-name="oslash" unicode="&#xf8;" horiz-adv-x="814" 
d="M80 325c0 93.333 31.332 172.332 93.999 236.999s140.334 97 233.001 97c62.667 0 120.334 -16.333 173.001 -49l55 80l32 -23l-55 -80c38 -31.333 67.833 -69.666 89.5 -114.999s32.5 -94.333 32.5 -147c0 -93.333 -31.333 -172.5 -94 -237.5
s-140.334 -97.5 -233.001 -97.5c-63.333 0 -121.333 16.333 -174 49l-54 -78l-32 22l54 79c-38 30.667 -67.667 69 -89 115s-32 95.333 -32 148zM685.999 324.999c0 94 -33.001 169.667 -99.001 227l-330 -478c44.667 -28 94.667 -42 150 -42
c80.667 0 147.334 28.167 200.001 84.5s79 125.833 79 208.5zM127.998 324.999c0 -94.667 32.6689 -170.333 98.002 -227l330 477c-44.667 28.667 -94.334 43 -149.001 43c-80.667 0 -147.334 -28.167 -200.001 -84.5s-79 -125.833 -79 -208.5z" />
    <glyph glyph-name="ugrave" unicode="&#xf9;" horiz-adv-x="762" 
d="M381 -10c-90 0 -157 25.667 -201 77s-66 122.333 -66 213v369h46v-369c0 -166 73.667 -249 221 -249s221 83 221 249v369h46v-369c0 -90.667 -22 -161.667 -66 -213s-111 -77 -201 -77zM407 701l-155 80l57 23l133 -93z" />
    <glyph glyph-name="uacute" unicode="&#xfa;" horiz-adv-x="762" 
d="M381 -10c-90 0 -157 25.667 -201 77s-66 122.333 -66 213v369h46v-369c0 -166 73.667 -249 221 -249s221 83 221 249v369h46v-369c0 -90.667 -22 -161.667 -66 -213s-111 -77 -201 -77zM496 754l-146 -53l-34 10l174 96z" />
    <glyph glyph-name="ucircumflex" unicode="&#xfb;" horiz-adv-x="762" 
d="M381 -10c-90 0 -157 25.667 -201 77s-66 122.333 -66 213v369h46v-369c0 -166 73.667 -249 221 -249s221 83 221 249v369h46v-369c0 -90.667 -22 -161.667 -66 -213s-111 -77 -201 -77zM382 752l-104 -51l-13 18l117 89l117 -89l-13 -18z" />
    <glyph glyph-name="udieresis" unicode="&#xfc;" horiz-adv-x="762" 
d="M381 -10c-90 0 -157 25.667 -201 77s-66 122.333 -66 213v369h46v-369c0 -166 73.667 -249 221 -249s221 83 221 249v369h46v-369c0 -90.667 -22 -161.667 -66 -213s-111 -77 -201 -77zM245 704v53h53v-53h-53zM466 704v53h53v-53h-53z" />
    <glyph glyph-name="yacute" unicode="&#xfd;" horiz-adv-x="559" 
d="M302 0h-45v232l-245 417h55l189 -322l25 -47c8 16 16.333 31.333 25 46l189 323h52l-245 -419v-230zM377 754l-146 -53l-34 10l174 96z" />
    <glyph glyph-name="thorn" unicode="&#xfe;" horiz-adv-x="527" 
d="M120 0v650.001h46v-159c46.667 2.66699 80 4 100 4c140.667 0 211 -54.667 211 -164c0 -60 -25.167 -105 -75.5 -135s-112.5 -45 -186.5 -45h-14v32h11c60.667 0 111.834 11.333 153.501 34s62.5 58.667 62.5 108s-14.667 83.166 -44 101.499s-66.333 27.5 -111 27.5
s-80.334 -1 -107.001 -3v-451h-46z" />
    <glyph glyph-name="ydieresis" unicode="&#xff;" horiz-adv-x="559" 
d="M302 0h-45v232l-245 417h55l189 -322c14.667 -29.333 23 -45 25 -47c4 8.66699 12.333 24 25 46l189 323h52l-245 -419v-230zM364 704v53h53v-53h-53zM143 704v53h53v-53h-53z" />
    <glyph glyph-name="dotlessi" unicode="&#x131;" horiz-adv-x="284" 
d="M120 0v650h44v-650h-44z" />
    <glyph glyph-name="Lslash" unicode="&#x141;" horiz-adv-x="576" 
d="M177 0v320l-101 -61l-22 35l123 74v347h48v-318l122 75l21 -35l-143 -87v-306h329v-44h-377z" />
    <glyph glyph-name="lslash" unicode="&#x142;" horiz-adv-x="480" 
d="M120 0v277l-85 -52l-22 35l107 65v324h46v-296l108 66l21 -35l-129 -79v-263h298v-42h-344z" />
    <glyph glyph-name="OE" unicode="&#x152;" horiz-adv-x="1059" 
d="M656 0v61c-61.333 -48.667 -133 -73 -215 -73c-101.333 0 -185.166 35.667 -251.499 107s-99.5 159 -99.5 263s33.167 191.5 99.5 262.5s150.166 106.5 251.499 106.5c82 0 153.667 -24.333 215 -73v61h332v-42h-284v-263h257v-41h-257v-327h295v-42h-343zM142 358
c0 -92 27.832 -169.333 83.499 -232s127.334 -94 215.001 -94s159.5 30.667 215.5 92v467c-56 61.333 -128 92 -216 92s-159.667 -31.167 -215 -93.5s-83 -139.5 -83 -231.5z" />
    <glyph glyph-name="oe" unicode="&#x153;" horiz-adv-x="972" 
d="M595 -1v54.999c-55.333 -44 -120.666 -66 -195.999 -66c-92 0 -168.167 32.5 -228.5 97.5s-90.5 144.833 -90.5 239.5s30.167 174.334 90.5 239.001s136.5 97 228.5 97c75.333 0 140.666 -22 195.999 -66v55h303v-38h-259v-240h234v-37h-234v-298h269v-38h-313z
M127 324.999c0 -84 25.168 -154.5 75.501 -211.5s115.666 -85.5 195.999 -85.5s145.833 28 196.5 84v425c-52 56 -117.833 84 -197.5 84s-144.667 -28.333 -195 -85s-75.5 -127 -75.5 -211z" />
    <glyph glyph-name="Scaron" unicode="&#x160;" horiz-adv-x="547" 
d="M441 652c-48.667 20.667 -96.998 31 -144.998 31c-97.333 0 -146 -36 -146 -108c0 -31.333 11 -60.5 33 -87.5s48.667 -51 80 -72l94 -64.5c31.333 -22 58 -48.333 80 -79s33 -64 33 -100c0 -60.667 -20.333 -106.5 -61 -137.5s-96.834 -46.5 -168.501 -46.5
s-132.834 18.333 -183.501 55l24 36c48 -31.333 100.667 -47 158 -47s101.333 11.5 132 34.5s46 56.167 46 99.5c0 30 -11 58.5 -33 85.5s-48.667 51.333 -80 73l-94 66.5c-31.333 22.667 -58 49.667 -80 81s-33 65 -33 101c0 47.333 17.5 84.833 52.5 112.5
s82.333 41.5 142 41.5s115.167 -12 166.5 -36zM176.002 858l104 -51l104 51l13 -18l-117 -89l-117 89z" />
    <glyph glyph-name="scaron" unicode="&#x161;" horiz-adv-x="485" 
d="M251 621c-36 0 -65.334 -8.66602 -88.001 -25.999s-34 -41.666 -34 -72.999c0 -36 15 -68.333 45 -97c21.333 -20.667 48.833 -42.5 82.5 -65.5s56.834 -39.5 69.501 -49.5s28 -23.667 46 -41c32.667 -32.667 49 -70.334 49 -113.001
c0 -55.333 -18.5 -97.166 -55.5 -125.499s-88.667 -42.5 -155 -42.5s-121.833 17.333 -166.5 52l24 35c45.333 -30.667 93.333 -46 144 -46s90.167 10.667 118.5 32s42.5 51.333 42.5 90c0 33.333 -14.333 64 -43 92c-20 20 -46.833 41.667 -80.5 65
s-57.167 40.166 -70.5 50.499s-29 24.166 -47 41.499c-34 34 -51 73.333 -51 118s15.833 79.667 47.5 105s75.5 38 131.5 38s106.333 -11 151 -33l-17 -37c-41.333 20 -89 30 -143 30zM148.999 808.001l104 -51l104 51l13 -18l-117 -89l-117 89z" />
    <glyph glyph-name="Ydieresis" unicode="&#x178;" horiz-adv-x="619" 
d="M333 0h-47.999v256l-269 459h58l208 -362l30 -56c5.33301 12.667 14.666 30.667 27.999 54l208 364h55l-270 -461v-254zM172.001 760v53h53v-53h-53zM393.001 760v53h53v-53h-53z" />
    <glyph glyph-name="Zcaron" unicode="&#x17d;" horiz-adv-x="631" 
d="M557 715v-22l-421 -651h429v-42h-499v23l420 650h-394v42h465zM216 858l104 -51l104 51l13 -18l-117 -89l-117 89z" />
    <glyph glyph-name="zcaron" unicode="&#x17e;" horiz-adv-x="562" 
d="M503 649v-22l-382 -587h387v-40h-454v23l382 587h-357v39h424zM185 808l104 -51l104 51l13 -18l-117 -89l-117 89z" />
    <glyph glyph-name="florin" unicode="&#x192;" horiz-adv-x="429" 
d="M304 660c33.333 0 68.335 -5 105.002 -15l-11 -35c-36 8.66699 -71 13 -105 13s-59 -10.667 -75 -32s-25.667 -60.333 -29 -117l-7 -122h175l-3 -38h-175l-21 -360c-4 -65.333 -17.833 -112 -41.5 -140s-59.167 -42 -106.5 -42c-17.333 0 -35.333 2 -54 6l8 34
c16 -2 31.667 -3 47 -3c32.667 0 57.167 11 73.5 33s26.166 60.667 29.499 116l21 356h-98l3 38h97l8 126c4 66 18.167 112.833 42.5 140.5s63.166 41.5 116.499 41.5z" />
    <glyph glyph-name="circumflex" unicode="&#x2c6;" horiz-adv-x="314" 
d="M157 585l-104 -51l-13 18l117 89l117 -89l-13 -18z" />
    <glyph glyph-name="caron" unicode="&#x2c7;" horiz-adv-x="314" 
d="M53 641l104 -51l104 51l13 -18l-117 -89l-117 89z" />
    <glyph glyph-name="ring" unicode="&#x2da;" horiz-adv-x="245" 
d="M40 768c0 24 7.83301 44.168 23.5 60.501s35.167 24.5 58.5 24.5s43 -8.16699 59 -24.5s24 -36.333 24 -60s-8 -43.834 -24 -60.501s-35.667 -25 -59 -25s-42.833 8.16699 -58.5 24.5s-23.5 36.5 -23.5 60.5zM77 768.001c0 -13.333 4.33301 -24.5 13 -33.5
s19.334 -13.5 32.001 -13.5s23.334 4.5 32.001 13.5s13 20.167 13 33.5s-4.33301 24.666 -13 33.999s-19.334 14 -32.001 14s-23.334 -4.66699 -32.001 -14s-13 -20.666 -13 -33.999z" />
    <glyph glyph-name="tilde" unicode="&#x2dc;" horiz-adv-x="425" 
d="M134 601c-25.333 0 -50.666 -20.333 -75.999 -61l-26 17c9.33301 14.667 17.5 26.667 24.5 36s18 19.333 33 30s28 16 39 16s19.5 -0.5 25.5 -1.5s12.5 -3 19.5 -6l15 -6.5c3 -1.33301 9 -4.33301 18 -9l15.5 -8c32 -18 55 -27 69 -27c25.333 0 50.666 20.333 75.999 61
l26 -17c-9.33301 -14.667 -17.5 -26.667 -24.5 -36s-18 -19.333 -33 -30s-28 -16 -39 -16s-19.5 0.5 -25.5 1.5s-12.5 3 -19.5 6l-15 6.5c-3 1.33301 -9 4.33301 -18 9l-15.5 8c-32 18 -55 27 -69 27z" />
    <glyph glyph-name="endash" unicode="&#x2013;" horiz-adv-x="473" 
d="M0 364h473v-40h-473v40z" />
    <glyph glyph-name="emdash" unicode="&#x2014;" horiz-adv-x="632" 
d="M0 364h632v-40h-632v40z" />
    <glyph glyph-name="quoteleft" unicode="&#x2018;" horiz-adv-x="121" 
d="M89 715v-65l12 -61h-23l-42 77v49h53z" />
    <glyph glyph-name="quoteright" unicode="&#x2019;" horiz-adv-x="121" 
d="M32 715h53v-49l-42 -77h-23l12 61v65z" />
    <glyph glyph-name="quotesinglbase" unicode="&#x201a;" horiz-adv-x="121" 
d="M32 53h53v-49l-42 -77h-23l12 61v65z" />
    <glyph glyph-name="quotedblleft" unicode="&#x201c;" horiz-adv-x="245" 
d="M213 715v-65l12 -61h-23l-42 77v49h53zM89 715v-65l12 -61h-23l-42 77v49h53z" />
    <glyph glyph-name="quotedblright" unicode="&#x201d;" horiz-adv-x="245" 
d="M32 715h53v-49l-42 -77h-23l12 61v65zM156 715h53v-49l-42 -77h-23l12 61v65z" />
    <glyph glyph-name="quotedblbase" unicode="&#x201e;" horiz-adv-x="245" 
d="M32 53h53v-49l-42 -77h-23l12 61v65zM156 53h53v-49l-42 -77h-23l12 61v65z" />
    <glyph glyph-name="dagger" unicode="&#x2020;" horiz-adv-x="474" 
d="M70 498h150v217h44v-217h140v-42h-140v-684h-44v684h-150v42z" />
    <glyph glyph-name="daggerdbl" unicode="&#x2021;" horiz-adv-x="474" 
d="M70 498h150v217h44v-217h140v-42h-140v-247h140v-42h-140v-395h-44v395h-150v42h150v247h-150v42z" />
    <glyph glyph-name="bullet" unicode="&#x2022;" horiz-adv-x="244" 
d="M80 309v84h84v-84h-84z" />
    <glyph glyph-name="ellipsis" unicode="&#x2026;" horiz-adv-x="339" 
d="M30 0v53h53v-53h-53zM143 0v53h53v-53h-53zM256 0v53h53v-53h-53z" />
    <glyph glyph-name="perthousand" unicode="&#x2030;" horiz-adv-x="967" 
d="M70 561c0 49.333 11.333 88.333 34 117s52 43 88 43s65.167 -14.333 87.5 -43s33.5 -67.5 33.5 -116.5s-11.833 -88.5 -35.5 -118.5s-52.5 -45 -86.5 -45s-62.667 14.833 -86 44.5s-35 69.167 -35 118.5zM110 561c0 -38 7.83301 -68.333 23.5 -91s35 -34 58 -34
s42.167 11.333 57.5 34s23 53 23 91s-7.66699 68 -23 90s-34.5 33 -57.5 33s-42.333 -11 -58 -33s-23.5 -52 -23.5 -90zM361 154c0 49.333 11.333 88.333 34 117s52 43 88 43s65.167 -14.333 87.5 -43s33.5 -67.667 33.5 -117s-11.833 -89 -35.5 -119s-52.5 -45 -86.5 -45
s-62.667 15 -86 45s-35 69.667 -35 119zM425 244c-15.333 -22 -23 -52.167 -23 -90.5s7.66699 -68.666 23 -90.999s34.666 -33.5 57.999 -33.5s42.5 11.167 57.5 33.5s22.5 52.666 22.5 90.999s-7.5 68.5 -22.5 90.5s-34.167 33 -57.5 33s-42.666 -11 -57.999 -33zM90 -1
l457 733l35 -21l-456 -732zM664 154c0 49.333 11.333 88.333 34 117s52 43 88 43s65.167 -14.333 87.5 -43s33.5 -67.667 33.5 -117s-11.833 -89 -35.5 -119s-52.5 -45 -86.5 -45s-62.667 15 -86 45s-35 69.667 -35 119zM728 244c-15.333 -22 -23 -52.167 -23 -90.5
s7.66699 -68.666 23 -90.999s34.666 -33.5 57.999 -33.5s42.5 11.167 57.5 33.5s22.5 52.666 22.5 90.999s-7.5 68.5 -22.5 90.5s-34.167 33 -57.5 33s-42.666 -11 -57.999 -33z" />
    <glyph glyph-name="guilsinglleft" unicode="&#x2039;" horiz-adv-x="292" 
d="M213 146l-163 186l163 186l29 -24l-142 -162l142 -162z" />
    <glyph glyph-name="guilsinglright" unicode="&#x203a;" horiz-adv-x="292" 
d="M242 332l-163 -186l-29 24l142 162l-142 162l29 24z" />
    <glyph glyph-name="Euro" unicode="&#x20ac;" horiz-adv-x="524" 
d="M94 277c-2.66699 22 -3.99902 47.499 -3.99902 76.499s1 55.5 3 79.5h-79l11 42h74c14 80.667 43.167 142.834 87.5 186.501s103.166 65.5 176.499 65.5c42 0 77 -5.33301 105 -16v-45c-32.667 11.333 -67.667 17 -105 17c-116 0 -186.667 -69.333 -212 -208h244l-11 -42
h-239c-2 -24 -3 -50.5 -3 -79.5s1.33301 -54.5 4 -76.5h249l-11 -42h-232c26 -135.333 96.333 -203 211 -203c45.333 0 80.333 5.33301 105 16v-42c-26 -12 -63 -18 -111 -18c-138.667 0 -224 82.333 -256 247h-87l11 42h69z" />
    <glyph glyph-name="trademark" unicode="&#x2122;" horiz-adv-x="718" 
d="M475 415h-18l-93 225c0 -4 -1 -11.667 -3 -23l-33 -217h-32l50 312h22l94 -225c2.66699 -9.33301 5 -16.333 7 -21c0 2.66699 2.66699 10 8 22l104 224h20l47 -312h-32l-31 217c-2.66699 13.333 -4 22.333 -4 27l-11 -27zM151 681h-101v29h234v-29h-102v-281h-31v281z
" />
    <glyph glyph-name="minus" unicode="&#x2212;" horiz-adv-x="514" 
d="M70 366h374v-44h-374v44z" />
    <glyph glyph-name="fi" unicode="&#xfb01;" horiz-adv-x="797" 
d="M120 0v649h333v-40h-287v-236h262v-39h-262v-334h-46zM631 0v649h46v-649h-46z" />
    <glyph glyph-name="fl" unicode="&#xfb02;" horiz-adv-x="991" 
d="M120 0v649h333v-40h-287v-236h262v-39h-262v-334h-46zM631 0v649h46v-607h298v-42h-344z" />
    <glyph glyph-name=".null" horiz-adv-x="0" 
 />
    <glyph glyph-name="nonmarkingreturn" horiz-adv-x="333" 
 />
    </font>
</defs>
</svg>
